<svg xmlns="http://www.w3.org/2000/svg" viewBox="0 0 102.27 48.1"><defs><style>.cls-1{fill:#24a069;}</style></defs><g id="Layer_2" data-name="Layer 2"><g id="Calque_1" data-name="Calque 1"><path class="cls-1" d="M51,31.62c-.7,1-1.3,1.8-1.8,2.6a37.29,37.29,0,0,1-9.3,9.7A23.47,23.47,0,0,1,27.63,48c-6.9.4-13.3-1-18.7-5.5-5.6-4.6-8.4-10.4-8.9-17.9-.6-10.9,7.8-22.5,21-24.3,9.8-1.4,18.1,1.9,24.8,9.2a65.35,65.35,0,0,1,4.1,5.1c.3.4.6.8,1.1,1.4.4-.5.7-.9,1-1.2,2-2.4,3.9-4.9,6.1-7.1A26.71,26.71,0,0,1,75.33.12,24.47,24.47,0,0,1,94,6.22c6.8,6,9.5,13.7,7.7,22.6-1.9,9.1-7.6,15.3-16.5,17.9-11.7,3.4-21.8.6-29.6-9.2-1.3-1.6-2.4-3.2-3.6-4.9A4.64,4.64,0,0,1,51,31.62ZM26.53,40a15.75,15.75,0,0,0,10.8-4.3c3.6-3.3,6.2-7.3,8.7-11.5a1.29,1.29,0,0,0-.1-1.2,43.68,43.68,0,0,0-7.8-9.9,19.14,19.14,0,0,0-17.7-4.5,15.6,15.6,0,0,0-10.3,22.8C13.53,37.52,18.93,40,26.53,40Zm50,.1a46.33,46.33,0,0,0,5.2-.7c11.2-2.6,16.1-15.5,9.3-24.5-5.6-7.5-16-8.5-23.5-4.1-5,2.9-8.2,7.6-11.2,12.5a1.47,1.47,0,0,0,.2,1.4,107.23,107.23,0,0,0,6.2,8.8C66.23,37.72,70.73,40.22,76.53,40.12Z"/><path class="cls-1" d="M77.93,31.72a3,3,0,0,1-3-2.7V18a3,3,0,0,1,6,0V29A3,3,0,0,1,77.93,31.72Z"/><path class="cls-1" d="M82.93,26.62h-11a3,3,0,0,1,0-6h11a3,3,0,0,1,0,6Z"/><path class="cls-1" d="M30.73,26.62h-11a3,3,0,0,1,0-6h11a3,3,0,0,1,0,6Z"/></g></g></svg>