<svg xmlns="http://www.w3.org/2000/svg" viewBox="0 0 65.52 24"><defs><style>.cls-1{fill:#fff;}</style></defs><g id="Layer_2" data-name="Layer 2"><g id="icon-auto-correct"><path id="icon" class="cls-1" d="M54.18,24H11.34A11.36,11.36,0,0,1,0,12.66V11.34A11.36,11.36,0,0,1,11.34,0H54.18A11.36,11.36,0,0,1,65.52,11.34v1.32A11.36,11.36,0,0,1,54.18,24ZM11.34,1.08A10.28,10.28,0,0,0,1.08,11.34v1.32A10.28,10.28,0,0,0,11.34,22.92H54.18A10.27,10.27,0,0,0,64.44,12.66V11.34A10.28,10.28,0,0,0,54.18,1.08ZM50.73,18a6.28,6.28,0,0,1-4.53-1.79,6,6,0,0,1-1.83-4.46A6,6,0,0,1,46.2,7.3a6.65,6.65,0,0,1,9.06,0,6,6,0,0,1,1.83,4.46,6,6,0,0,1-1.83,4.46A6.28,6.28,0,0,1,50.73,18Zm0-10.63a4.06,4.06,0,0,0-3,1.28,4.33,4.33,0,0,0-1.24,3.1,4.31,4.31,0,0,0,1.24,3.1,4.23,4.23,0,0,0,6.06,0A4.31,4.31,0,0,0,55,11.76a4.33,4.33,0,0,0-1.24-3.1A4.08,4.08,0,0,0,50.73,7.38ZM26.73,18a5,5,0,0,1-3.68-1.41,5.38,5.38,0,0,1-1.43-4V5.81h2V12.5a3.93,3.93,0,0,0,.83,2.62,3.09,3.09,0,0,0,4.5,0,3.93,3.93,0,0,0,.83-2.62V5.81h2v6.77a5.38,5.38,0,0,1-1.43,4A5,5,0,0,1,26.73,18Zm-17-.12H7.57L12.89,5.81h2.18l5.32,12.08H18.21L17,15.14H11L9.74,17.89ZM14,8.28h0l-2.2,5h4.39ZM39.6,17.89h-2V7.68H33.9V5.81h9.36V7.68H39.6V17.89Z"/></g></g></svg>