<svg xmlns="http://www.w3.org/2000/svg" viewBox="0 0 71.8 71.8"><defs><style>.cls-1{fill:#fff;}.cls-2{fill:#208956;}</style></defs><g id="Layer_2" data-name="Layer 2"><g id="Calque_1" data-name="Calque 1"><circle class="cls-1" cx="35.9" cy="35.9" r="35.9"/><path class="cls-2" d="M22,57.4a.91.91,0,0,1-.7-.3A1.13,1.13,0,0,1,21,56l2.1-6.1a20,20,0,1,1,13.2,5,21,21,0,0,1-6.1-.9l-7.7,3.4ZM36.2,17.1A17.84,17.84,0,0,0,18.4,34.9,17.64,17.64,0,0,0,25,48.7a1,1,0,0,1,.3,1.2l-1.5,4.4,5.8-2.6a1.1,1.1,0,0,1,.8,0,19.1,19.1,0,0,0,5.8,1,17.8,17.8,0,0,0,0-35.6Z"/><path class="cls-2" d="M40.6,36.8a15.22,15.22,0,0,0-2.1,1.5,12.45,12.45,0,0,0-2,1.7,1.75,1.75,0,0,1-1.4.7,2.11,2.11,0,0,1-1.3-.5,1.73,1.73,0,0,1-.6-1.2c0-.7.6-1.5,1.7-2.3s2-1.4,3.1-2.2,1.7-1.6,1.7-2.3A2.91,2.91,0,0,0,38.5,30,4,4,0,0,0,36,28.9a4.06,4.06,0,0,0-1.9.8,4.62,4.62,0,0,1-1.7.8,1.76,1.76,0,0,1-1.3-.6,2.08,2.08,0,0,1-.5-1.2c0-.9.8-1.6,2.3-2.4a7.82,7.82,0,0,1,3.2-.9,7.45,7.45,0,0,1,5.1,2.1,6.27,6.27,0,0,1,2.3,4.7A7.55,7.55,0,0,1,40.6,36.8Zm-6.2,9.3a2.11,2.11,0,0,1-1.3-.5,1.71,1.71,0,0,1-.7-1.3,3,3,0,0,1,.5-1.6,2,2,0,0,1,1.7-.9,1.62,1.62,0,0,1,1.4.7,2,2,0,0,1,.4,1.3,2.82,2.82,0,0,1-.4,1.5A2.25,2.25,0,0,1,34.4,46.1Z"/></g></g></svg>