<svg xmlns="http://www.w3.org/2000/svg" width="18.513" height="21.181" viewBox="0 0 18.513 21.181">
  <g id="on_hold" transform="translate(-3473.235 4818.63)">
    <path id="Tracé_300" data-name="Tracé 300" d="M3481.647-4815.686v-.748c-.231,0-.449.012-.666,0a.963.963,0,0,1-.931-.958.94.94,0,0,1,.919-.968c1.016-.025,2.035-.027,3.051,0a.925.925,0,0,1,.9.976.945.945,0,0,1-.935.949c-.186.012-.373,0-.567,0a1.706,1.706,0,0,0-.047.232c0,.158,0,.315,0,.524a9.238,9.238,0,0,1,5.223,2.361l.737-.835a.237.237,0,0,0-.03-.053c-.381-.469-.435-.8-.132-1.028.408-.306.7-.057.987.233s.58.59.874.88.426.592.125.917-.628.2-.913-.076a1.387,1.387,0,0,0-.143-.1l-.724.862a8.841,8.841,0,0,1,1.64,8.58,8.692,8.692,0,0,1-4.935,5.446,8.991,8.991,0,0,1-11.968-4.982,8.746,8.746,0,0,1,.738-7.961A8.883,8.883,0,0,1,3481.647-4815.686Zm-6.637,8.878a7.476,7.476,0,0,0,7.292,7.535,7.479,7.479,0,0,0,7.646-7.275,7.466,7.466,0,0,0-7.363-7.651A7.461,7.461,0,0,0,3475.009-4806.808Z" transform="translate(0 0)" fill="#fff" stroke="#fff" stroke-width="0.5"/>
    <path id="Tracé_301" data-name="Tracé 301" d="M3481.706-4813.415a1.856,1.856,0,0,1,.5,1.362c-.037,1.1-.02,2.2,0,3.3a.919.919,0,0,0,.207.521,1.046,1.046,0,0,1-.037,1.481,1.032,1.032,0,0,1-1.446-.032,1.059,1.059,0,0,1,0-1.451.968.968,0,0,0,.213-.563c.02-1.084.041-2.17,0-3.252A1.686,1.686,0,0,1,3481.706-4813.415Z" transform="translate(0.818 0.788)" fill="#fff" stroke="#fff" stroke-width="0.5"/>
  </g>
</svg>
