<svg id="icon-new-message" xmlns="http://www.w3.org/2000/svg" width="24" height="24" viewBox="0 0 24 24">
  <rect id="Boundary" width="24" height="24" fill="none"/>
  <path id="icon" d="M-321.254-172.318h-22.076c-.68,0-.986-.9-.986-1.533V-185.2l9.3,5.162a5.132,5.132,0,0,0,2.581.7,5.4,5.4,0,0,0,2.648-.7l9.475-5.256v11.441C-320.317-173.235-320.566-172.318-321.254-172.318Zm-11.111-8.277h0a4.309,4.309,0,0,1-2.083-.557l-9.868-5.458v-1.3c0-.645.306-1.553.986-1.553h22.076c.688,0,.938.929.938,1.553v1.2l-9.968,5.553A4.3,4.3,0,0,1-332.365-180.6Z" transform="translate(344.317 192.888)"/>
</svg>
