<svg xmlns="http://www.w3.org/2000/svg" width="24.999" height="24" viewBox="0 0 24.999 24">
  <g id="icon-school" transform="translate(0.5)">
    <rect id="Boundary" width="24" height="24" fill="none"/>
    <path id="icon" d="M-752.813-39.616v-9.53h-5.392a.407.407,0,0,1-.407-.406V-52.37a.407.407,0,0,1,.292-.389l.825-.247-6.5-4.339-6.444,4.3.739.171a.406.406,0,0,1,.315.4v2.926a.406.406,0,0,1-.407.406h-5.391v9.53a.406.406,0,0,1-.407.407.406.406,0,0,1-.406-.407v-9.936a.407.407,0,0,1,.406-.407h5.392v-2.2l-1.342-.311a.406.406,0,0,1-.308-.323.406.406,0,0,1,.175-.41l7.271-4.847v-3.543A.407.407,0,0,1-764-62h3.251a.406.406,0,0,1,.4.356l.266,2.105a.406.406,0,0,1-.1.319.409.409,0,0,1-.305.138h-3.111v1.032l7.269,4.848a.407.407,0,0,1,.176.4.406.406,0,0,1-.285.329l-1.366.407v2.108h5.393a.406.406,0,0,1,.406.407v9.936a.406.406,0,0,1-.406.407A.407.407,0,0,1-752.813-39.616ZM-763.593-59.9h2.651l-.164-1.292h-2.487Zm.843,18.623v-4.561h-2.5v4.561a.406.406,0,0,1-.406.407.406.406,0,0,1-.407-.407V-46.24a.406.406,0,0,1,.407-.406h3.312a.406.406,0,0,1,.406.406v4.968a.406.406,0,0,1-.406.407A.406.406,0,0,1-762.75-41.272Z" transform="translate(776 62.605)" stroke="rgba(0,0,0,0)" stroke-width="1"/>
  </g>
</svg>
