<svg id="icon-email" xmlns="http://www.w3.org/2000/svg" width="24" height="24" viewBox="0 0 24 24">
  <rect id="Boundary" width="24" height="24" fill="none"/>
  <path id="icon" d="M1055.456,520.36h-21.189c-.927,0-1.427-.99-1.427-1.922V506.961l9.636,5.239a4.539,4.539,0,0,0,2.249.6,4.8,4.8,0,0,0,2.308-.6l9.807-5.329v11.564C1056.832,519.365,1056.4,520.36,1055.456,520.36ZM1033.8,508.575v9.863c0,.436.208.962.467.962h21.189c.269,0,.421-.572.424-.967v-9.947l-8.386,4.556a5.748,5.748,0,0,1-2.769.716,5.491,5.491,0,0,1-2.716-.721Zm10.987,3.84a4.623,4.623,0,0,1-2.232-.6l-9.716-5.373v-1.531c0-.955.5-1.971,1.427-1.971h21.189c.948,0,1.38,1.021,1.38,1.971v1.434l-9.814,5.467a4.591,4.591,0,0,1-1.751.566v.034Zm-10.987-6.537,9.224,5.1a3.673,3.673,0,0,0,1.638.471h.126a3.657,3.657,0,0,0,1.765-.472l9.324-5.195v-.87c0-.467-.184-1.011-.42-1.011h-21.189c-.258,0-.467.553-.467,1.011Z" transform="translate(-1032.84 -499.215)"/>
</svg>
