<svg id="icon-phone" xmlns="http://www.w3.org/2000/svg" width="24" height="24" viewBox="0 0 24 24">
  <rect id="Boundary" width="24" height="24" transform="translate(0 0)" fill="none"/>
  <path id="icon" d="M977.34,491.439a.58.58,0,0,1-.279-1.089,6.494,6.494,0,0,0,1.381-1.012,1.758,1.758,0,0,0,.487-.8c.077-.286.147-.546.2-.81a4.943,4.943,0,0,0,.144-1.166.954.954,0,0,0-.241-.235c-.143-.092-.309-.193-.476-.294l-.647-.392c-.453-.275-.906-.55-1.356-.831-.276-.172-.545-.355-.815-.539l-.216-.147c-.093-.064-.183-.128-.273-.193-.126-.091-.253-.18-.383-.264-.065-.047-.1-.055-.131-.045a.843.843,0,0,0-.152.1,4.889,4.889,0,0,0-.757.841l-.335.451c-.192.259-.383.517-.581.772a2.833,2.833,0,0,1-.7.672,1.029,1.029,0,0,1-.927.14,3.614,3.614,0,0,1-.551-.222c-.184-.1-.339-.2-.492-.307-.083-.055-.166-.11-.25-.162a18.693,18.693,0,0,1-2.223-1.6,15.885,15.885,0,0,1-3.452-4.127c-.2-.342-.393-.7-.584-1.051-.113-.209-.225-.418-.34-.624a4.929,4.929,0,0,1-.407-.925,1.336,1.336,0,0,1,.173-1.2l.041-.061a6.135,6.135,0,0,1,.909-.975c.12-.11.253-.228.388-.346.176-.155.353-.31.524-.473a3.665,3.665,0,0,0,.578-.681.319.319,0,0,0,.028-.324,4.324,4.324,0,0,0-.247-.473l-.077-.125c-.191-.31-.388-.631-.561-.978l-1.392-2.784a3.1,3.1,0,0,0-.324-.547,1.289,1.289,0,0,0-.394.024c-.37.074-.729.168-1.087.262a1.768,1.768,0,0,0-1,.678,7.827,7.827,0,0,0-1.286,2.638,5.226,5.226,0,0,0-.188,1.255c-.007.184-.01.363,0,.541.01.2.024.4.053.6a9.2,9.2,0,0,0,.336,1.425c.1.334.215.661.325.988.085.252.169.5.251.756a16.313,16.313,0,0,0,1.105,2.675,21.332,21.332,0,0,0,2.36,3.458c.6.733,1.24,1.442,1.9,2.111a22.594,22.594,0,0,0,2.106,1.9,13.526,13.526,0,0,0,2.088,1.374,17.112,17.112,0,0,0,1.647.732.58.58,0,0,1-.414,1.084,18.134,18.134,0,0,1-1.769-.787,14.665,14.665,0,0,1-2.274-1.494,23.812,23.812,0,0,1-2.211-1.993c-.683-.692-1.345-1.428-1.966-2.183a22.493,22.493,0,0,1-2.49-3.653,17.41,17.41,0,0,1-1.187-2.87c-.079-.243-.162-.49-.245-.738-.112-.335-.226-.669-.331-1.007a10.366,10.366,0,0,1-.378-1.605c-.035-.238-.052-.476-.064-.713-.01-.212-.008-.423,0-.635a6.375,6.375,0,0,1,.229-1.527,8.972,8.972,0,0,1,1.469-3.017,2.916,2.916,0,0,1,1.647-1.116c.375-.1.756-.2,1.14-.274a2.464,2.464,0,0,1,.859-.028,1.043,1.043,0,0,1,.676.413,4.166,4.166,0,0,1,.464.77l1.384,2.769c.15.3.326.587.512.89l.079.129a5.333,5.333,0,0,1,.307.584,1.468,1.468,0,0,1-.115,1.463,4.774,4.774,0,0,1-.747.88c-.176.168-.364.334-.552.5-.129.113-.258.226-.383.342a5.021,5.021,0,0,0-.749.8.213.213,0,0,0-.045.2,3.8,3.8,0,0,0,.317.726c.121.216.236.43.351.643.184.342.368.682.564,1.015a14.73,14.73,0,0,0,3.2,3.827,17.463,17.463,0,0,0,2.085,1.5c.1.06.189.121.28.182.13.086.261.173.4.249a2.5,2.5,0,0,0,.311.126,1.753,1.753,0,0,0,.4-.39c.2-.259.388-.512.574-.763l.331-.445a5.989,5.989,0,0,1,.935-1.033,1.835,1.835,0,0,1,.555-.328,1.3,1.3,0,0,1,1.153.2c.107.067.249.168.392.269.083.06.167.119.252.177l.216.147c.257.175.513.35.776.513.446.278.894.55,1.344.823l.646.392c.176.107.353.214.526.326a3.867,3.867,0,0,1,.352.28,1.183,1.183,0,0,1,.4.945,5.961,5.961,0,0,1-.173,1.4c-.058.269-.133.548-.208.826a2.946,2.946,0,0,1-.813,1.367,7.688,7.688,0,0,1-1.624,1.19A.583.583,0,0,1,977.34,491.439Zm-5.79-5.934-.009.006Zm.085-.015h0Zm-8.63-16.919,0,0Z" transform="translate(-957.172 -467.439)"/>
</svg>
