<svg xmlns="http://www.w3.org/2000/svg" width="18.501" height="21.147" viewBox="0 0 18.501 21.147">
  <g id="Time_spent" transform="translate(-3473.235 4818.63)">
    <path id="time_spent-2" data-name="time_spent" d="M-3976.168,2878.24a9.5,9.5,0,0,1-5.213-1.584,8.853,8.853,0,0,1-3.437-4.317,8.99,8.99,0,0,1,.76-8.178,9.1,9.1,0,0,1,6.756-4.339v-.277h-.175c-.1,0-.179,0-.256-.006a1.208,1.208,0,0,1-1.165-1.206,1.193,1.193,0,0,1,1.163-1.219c.526-.014,1.049-.02,1.551-.02s1.021.007,1.511.021a1.171,1.171,0,0,1,.833.373,1.172,1.172,0,0,1,.314.857,1.2,1.2,0,0,1-1.169,1.193c-.068,0-.139.006-.226.006h-.155v.284a9.383,9.383,0,0,1,4.952,2.229l.441-.5a1.132,1.132,0,0,1-.283-.791.687.687,0,0,1,.29-.473.859.859,0,0,1,.516-.19,1.173,1.173,0,0,1,.8.449c.31.323.628.638.87.876a.826.826,0,0,1,.132,1.264.775.775,0,0,1-.573.276.964.964,0,0,1-.627-.279l-.44.524a9.731,9.731,0,0,1,1.87,3.982,9.2,9.2,0,0,1,.163,1.952q0,.106,0,.212h-.01a9.191,9.191,0,0,1-.469,2.5,8.933,8.933,0,0,1-5.07,5.6,8.853,8.853,0,0,1-3.627.777Zm-5.116-14.388a7.393,7.393,0,0,0-2.151,5.075,7,7,0,0,0,1.977,5.023,7.21,7.21,0,0,0,5.072,2.257l.166,0a7.2,7.2,0,0,0,5.04-2.05,7.155,7.155,0,0,0,2.176-4.794h-7.5v-7.582A6.984,6.984,0,0,0-3981.284,2863.852Z" transform="translate(7458.7 -7675.723)" fill="#fff"/>
  </g>
</svg>
