<svg xmlns="http://www.w3.org/2000/svg" width="24.22" height="24" viewBox="0 0 24.22 24">
  <g id="icon-pseudonyme" transform="translate(0.135)">
    <rect id="Boundary" width="24" height="24" fill="none"/>
    <path id="icon" d="M-754.527-948.621h0a.371.371,0,0,1-.26-.107.367.367,0,0,1-.111-.261.365.365,0,0,1,.107-.262c1.058-1.083,1.067-1.767.038-2.927-.123-.137-.257-.272-.387-.4l-.036-.036a13.226,13.226,0,0,0-4.28-2.8,13.242,13.242,0,0,0-5.006-.979c-.313,0-.629.011-.94.033l-.294.017c-.217.013-.441.027-.659.037a13.436,13.436,0,0,0-9.414,4.1c-.974,1.022-.976,1.856,0,2.975a.372.372,0,0,1-.037.523.374.374,0,0,1-.243.091.377.377,0,0,1-.28-.128c-1.222-1.41-1.212-2.673.029-3.973a14.177,14.177,0,0,1,9.926-4.325c.157-.007.32-.016.485-.026l.153-.009.291-.018c.328-.023.66-.035.988-.035a13.972,13.972,0,0,1,5.282,1.034,13.984,13.984,0,0,1,4.524,2.959c.163.163.309.31.454.471,1.3,1.464,1.28,2.568-.062,3.939A.364.364,0,0,1-754.527-948.621Zm-10.681-9.162h-.063a6.212,6.212,0,0,1-4.375-1.787,6.214,6.214,0,0,1-1.874-4.4,6.257,6.257,0,0,1,6.188-6.311h.065a6.385,6.385,0,0,1,6.246,6.18A6.261,6.261,0,0,1-765.208-957.783Zm-.119-11.758a5.466,5.466,0,0,0-3.875,1.653,5.476,5.476,0,0,0-1.577,3.91,5.527,5.527,0,0,0,5.509,5.454h.055a5.468,5.468,0,0,0,3.877-1.653,5.474,5.474,0,0,0,1.577-3.909,5.64,5.64,0,0,0-5.518-5.454Z" transform="translate(777.243 971.786)" stroke="#000" stroke-width="0.3"/>
  </g>
</svg>
