<svg xmlns="http://www.w3.org/2000/svg" width="24" height="24.3" viewBox="0 0 24 24.3">
  <g id="icon-lock" transform="translate(0 0.15)">
    <rect id="Boundary" width="24" height="24" fill="none"/>
    <path id="icon-lock-2" data-name="icon-lock" d="M-669.4-945.935a.4.4,0,0,1-.4-.4.4.4,0,0,1,.4-.4.658.658,0,0,0,.3-.038s.039-.05.039-.31v-12.542a.7.7,0,0,0-.038-.311.881.881,0,0,0-.325-.037h-16.83a.691.691,0,0,0-.327.042.812.812,0,0,0-.035.306v12.541a.7.7,0,0,0,.04.314.732.732,0,0,0,.295.035.4.4,0,0,1,.4.4.4.4,0,0,1-.4.4c-.791,0-1.128-.341-1.128-1.142v-12.541c0-.809.334-1.14,1.155-1.14h2.692a38,38,0,0,1-.007-4.062,5.674,5.674,0,0,1,5.044-5.067,5.9,5.9,0,0,1,.753-.049,5.691,5.691,0,0,1,5.588,4.54,6.191,6.191,0,0,1,.133,1.2c.012.637.01,1.664.006,2.66v.776h2.623c.82,0,1.155.33,1.155,1.14v12.542C-668.271-946.276-668.608-945.935-669.4-945.935Zm-8.387-23.206a5.107,5.107,0,0,0-.65.042,4.889,4.889,0,0,0-4.348,4.36c-.1.963-.039,3.554-.017,3.982h9.961v-.907c0-.885,0-1.887-.007-2.518a5.421,5.421,0,0,0-.116-1.049A4.907,4.907,0,0,0-677.786-969.141Zm-.06,18.9a1.472,1.472,0,0,1-1-.393,1.467,1.467,0,0,1-.471-1.027.972.972,0,0,1,0-.119l0-.627v-.082c0-.077,0-.143,0-.211a.832.832,0,0,0-.172-.61,1.976,1.976,0,0,1,.365-2.686,2.061,2.061,0,0,1,1.278-.445,2.041,2.041,0,0,1,1.433.581,1.987,1.987,0,0,1,.118,2.693.243.243,0,0,0-.079.177c.014.424.009.847,0,1.24a1.452,1.452,0,0,1-.392,1.036,1.467,1.467,0,0,1-1.026.472Zm0-5.409a1.249,1.249,0,0,0-.785.272,1.174,1.174,0,0,0-.227,1.59,1.6,1.6,0,0,1,.329,1.152c0,.019,0,.046,0,.076s0,.037,0,.054l0,.1,0,.651a.724.724,0,0,0,.217.541.664.664,0,0,0,.442.182l.05,0a.677.677,0,0,0,.475-.218.679.679,0,0,0,.181-.489c.008-.454.012-.832,0-1.216a1,1,0,0,1,.283-.741,1.2,1.2,0,0,0-.088-1.6A1.245,1.245,0,0,0-677.842-955.648Z" transform="translate(689.917 969.935)" stroke="#000" stroke-width="0.3"/>
  </g>
</svg>
