<svg xmlns="http://www.w3.org/2000/svg" width="24" height="26.233" viewBox="0 0 24 26.233">
  <g id="icon-information" transform="translate(0 0.5)">
    <rect id="Boundary" width="24" height="24" fill="none"/>
    <path id="icon" d="M-602.448-584.247v-20.93a2.636,2.636,0,0,0-2.58-2.682h-15.581a2.634,2.634,0,0,0-2.578,2.682v20.93a.54.54,0,0,1-.541.541.541.541,0,0,1-.541-.541v-20.93a3.716,3.716,0,0,1,3.66-3.763h15.581a3.716,3.716,0,0,1,3.661,3.763v20.93a.54.54,0,0,1-.54.541A.54.54,0,0,1-602.448-584.247Zm-18.716-2.822a.5.5,0,0,1-.5-.5.5.5,0,0,1,.5-.5h7.826a.5.5,0,0,1,.5.5.5.5,0,0,1-.5.5Zm0-4.058a.5.5,0,0,1-.5-.5.5.5,0,0,1,.5-.5h13a.5.5,0,0,1,.5.5.5.5,0,0,1-.5.5Zm.056-3.774a.53.53,0,0,1-.555-.5.53.53,0,0,1,.555-.5h16.064a.53.53,0,0,1,.556.5.53.53,0,0,1-.556.5Zm0-3.772a.531.531,0,0,1-.555-.5.53.53,0,0,1,.555-.5h16.063a.53.53,0,0,1,.556.5.53.53,0,0,1-.556.5Zm-.192-3.774a.53.53,0,0,1-.555-.5.529.529,0,0,1,.555-.5h16.064a.529.529,0,0,1,.555.5.53.53,0,0,1-.555.5Z" transform="translate(624.818 608.939)" stroke="rgba(0,0,0,0)" stroke-width="1"/>
  </g>
</svg>
