<svg xmlns="http://www.w3.org/2000/svg" viewBox="0 0 102.2 58.8"><defs><style>.cls-1{fill:#24a069;}</style></defs><g id="Layer_2" data-name="Layer 2"><g id="Calque_1" data-name="Calque 1"><path class="cls-1" d="M28.7,36.6a6.44,6.44,0,0,1-6.4-6.4,6.38,6.38,0,0,1,6.4-6.4,6.44,6.44,0,0,1,6.4,6.4A6.38,6.38,0,0,1,28.7,36.6Z"/><path class="cls-1" d="M73.1,35.9a6.44,6.44,0,0,1-6.4-6.4,6.38,6.38,0,0,1,6.4-6.4,6.4,6.4,0,1,1,0,12.8Z"/><path class="cls-1" d="M70.4,58.8H31.8C14.3,58.8,0,45.6,0,29.4S14.2,0,31.8,0H70.4c17.5,0,31.8,13.2,31.8,29.4S87.9,58.8,70.4,58.8ZM31.8,10.5c-11.3,0-20.4,8.5-20.4,18.9s9.2,18.9,20.4,18.9H70.4c11.3,0,20.4-8.5,20.4-18.9S81.6,10.5,70.4,10.5Z"/></g></g></svg>