<?xml version="1.0" encoding="utf-8"?>
<!-- Generator: Adobe Illustrator 24.3.0, SVG Export Plug-In . SVG Version: 6.00 Build 0)  -->
<svg version="1.1" id="Layer_1" xmlns="http://www.w3.org/2000/svg" xmlns:xlink="http://www.w3.org/1999/xlink" x="0px" y="0px"
	 viewBox="0 0 25 24" style="enable-background:new 0 0 25 24;" xml:space="preserve">
<style type="text/css">
	.st0{fill:none;stroke:#208956;stroke-width:0.6;stroke-miterlimit:10;}
</style>
<path class="st0" d="M15.7,18v-2.4c0-0.4,0.3-0.7,0.7-0.7h3.1c0.4,0,0.7,0.3,0.7,0.7V18c0,0.4-0.3,0.7-0.7,0.7h-3.1
	C16,18.8,15.7,18.4,15.7,18L15.7,18z M10.2,10.8v2.4c0,0.4,0.3,0.7,0.7,0.7H14c0.4,0,0.7-0.3,0.7-0.7v-2.4c0-0.4-0.3-0.7-0.7-0.7H11
	C10.6,10.1,10.2,10.4,10.2,10.8z M9.3,18v-2.4c0-0.4-0.3-0.7-0.7-0.7H5.5c-0.4,0-0.7,0.3-0.7,0.7V18c0,0.4,0.3,0.7,0.7,0.7h3.1
	C9,18.8,9.3,18.4,9.3,18z M10.2,15.6V18c0,0.4,0.3,0.7,0.7,0.7H14c0.4,0,0.7-0.3,0.7-0.7v-2.4c0-0.4-0.3-0.7-0.7-0.7H11
	C10.6,14.9,10.2,15.2,10.2,15.6z M16.4,13.9h3.1c0.4,0,0.7-0.3,0.7-0.7v-2.4c0-0.4-0.3-0.7-0.7-0.7h-3.1c-0.4,0-0.7,0.3-0.7,0.7v2.4
	C15.7,13.6,16,13.9,16.4,13.9L16.4,13.9z M20.2,8.4V6c0-0.4-0.3-0.7-0.7-0.7h-3.1c-0.4,0-0.7,0.3-0.7,0.7v2.4c0,0.4,0.3,0.7,0.7,0.7
	h3.1C19.9,9.1,20.2,8.8,20.2,8.4z M8.6,10.1H5.5c-0.4,0-0.7,0.3-0.7,0.7v2.4c0,0.4,0.3,0.7,0.7,0.7h3.1c0.4,0,0.7-0.3,0.7-0.7v-2.4
	C9.3,10.4,9,10.1,8.6,10.1z M8.6,5.2H5.5C5.1,5.2,4.8,5.6,4.8,6v2.4c0,0.4,0.3,0.7,0.7,0.7h3.1c0.4,0,0.7-0.3,0.7-0.7V6
	C9.3,5.6,9,5.2,8.6,5.2z M14.8,8.4V6c0-0.4-0.3-0.7-0.7-0.7H11c-0.4,0-0.7,0.3-0.7,0.7v2.4c0,0.4,0.3,0.7,0.7,0.7H14
	C14.4,9.1,14.8,8.8,14.8,8.4z"/>
</svg>
