<svg xmlns="http://www.w3.org/2000/svg" viewBox="0 0 71.8 71.8"><defs><style>.cls-1{fill:#fff;}.cls-2{fill:#208956;}</style></defs><g id="Layer_2" data-name="Layer 2"><g id="Calque_1" data-name="Calque 1"><circle class="cls-1" cx="35.9" cy="35.9" r="35.9"/><path class="cls-2" d="M16.8,36.3V19.9c0-3.5,2.1-5.6,5.6-5.6H47.7A5,5,0,0,1,53,18.8a1.63,1.63,0,0,1-.1,1.2,1.05,1.05,0,0,1-.9.5c-.2,0-.6-.4-.7-.6C50.2,16.2,50,16,46.2,16H22.7c-2.9,0-4.1,1.2-4.1,4.1V52.5c0,2.9,1.1,4,4,4H47c3,0,4.2-1.2,4.2-4.2V43.4c0-.6.1-1.3.8-1.2.4,0,.9.7.9,1,0,3.5.1,7-.1,10.5a4.81,4.81,0,0,1-5,4.6c-8.7,0-17.4.1-26,0a5.07,5.07,0,0,1-5.1-5.4C16.8,47.5,16.8,41.9,16.8,36.3Z"/><path class="cls-2" d="M42.9,44.4a11.69,11.69,0,0,1,.6-2c2.6-6.2,5.3-12.4,7.9-18.5.6-1.4.7-1.4,2-.8.8.4,1.7.7,2.5,1.1s.8.7.6,1.4C53.7,32.1,51,38.7,48,45.2c-.7,1.4-2.4,2.4-3.7,3.5-.5.4-1,0-1.1-.7-.1-1.2-.1-2.3-.2-3.5A.1.1,0,0,0,42.9,44.4Zm10-19.8c-.1.2-.2.3-.3.5-2.6,6.1-5.2,12.1-7.8,18.2a10.14,10.14,0,0,0-.2,2.5c.2.1.3.1.5.2a14.37,14.37,0,0,0,1.8-2.5c2.4-5.5,4.8-11.1,7.2-16.7.7-1.6.7-1.6-1-2.2Z"/><path class="cls-2" d="M34.7,23H46.2c.3,0,.7-.1.9,0s.8.5.8.8-.4.7-.7.9a1.73,1.73,0,0,1-1,.1H23.3c-.7,0-1.8.2-1.8-.9s1.1-.8,1.8-.8C27.1,23,30.9,23,34.7,23Z"/><path class="cls-2" d="M33.7,30.6H23.2a3.75,3.75,0,0,1-1.1-.1,1,1,0,0,1-.6-.7A1.13,1.13,0,0,1,22,29c.3-.2.8-.1,1.1-.1h21c.7,0,1.7-.3,1.7.8s-1,.9-1.7.9Z"/><path class="cls-2" d="M29.2,34.8h6.5c.6,0,1.3-.1,1.3.8s-.6.9-1.3.9h-13c-.6,0-1.3,0-1.3-.9s.7-.8,1.3-.8Z"/></g></g></svg>