<svg xmlns="http://www.w3.org/2000/svg" viewBox="0 0 70.4 70.4"><defs><style>.cls-1{fill:#fff;}.cls-2{fill:#1e8956;}</style></defs><g id="Layer_2" data-name="Layer 2"><g id="Calque_1" data-name="Calque 1"><circle class="cls-1" cx="35.2" cy="35.2" r="35.2" transform="translate(-6.02 63.11) rotate(-79.1)"/><path class="cls-2" d="M53.4,52.4a.91.91,0,0,1-.8-.4l-.7-.7c-4.6-4.5-10.1-6.5-17-6.2h-.4a4.87,4.87,0,0,0-1.2.1c-6.4.3-11.6,2.5-15.6,6.8a1.06,1.06,0,0,1-1.5-1.5,24.11,24.11,0,0,1,17-7.4,3.75,3.75,0,0,0,1.1-.1h.5a24.47,24.47,0,0,1,18.6,6.8l.8.8a1.09,1.09,0,0,1-.1,1.5A.91.91,0,0,1,53.4,52.4Z"/><path class="cls-2" d="M35.3,42.7h0a11.46,11.46,0,0,1-11.1-11,11.21,11.21,0,0,1,11-10.9,11.28,11.28,0,0,1,11,10.9,11.28,11.28,0,0,1-10.9,11Zm-.1-19.9a9.25,9.25,0,0,0-8.9,8.8A8.77,8.77,0,0,0,29,37.7a9.15,9.15,0,0,0,6.3,2.8,8.77,8.77,0,0,0,6.1-2.7,9,9,0,0,0,2.7-6.2A9.25,9.25,0,0,0,35.2,22.8Z"/><path class="cls-2" d="M63,38.8a.76.76,0,0,1-.5-.2c-.1-.1-.2-.3-.4-.4a12.36,12.36,0,0,0-9.5-3.5h-.9A12.31,12.31,0,0,0,43,38.5a.71.71,0,0,1-1-1,13.77,13.77,0,0,1,9.6-4.2h.9A13.29,13.29,0,0,1,63,37.2l.5.5a.68.68,0,0,1-.1,1C63.4,38.8,63.2,38.8,63,38.8Z"/><path class="cls-2" d="M52.9,33.4h0a6.73,6.73,0,0,1-4.5-1.9,6.31,6.31,0,0,1-1.9-4.4,6.54,6.54,0,0,1,6.3-6.3A6.46,6.46,0,0,1,59.1,27a6.31,6.31,0,0,1-1.9,4.4A6,6,0,0,1,52.9,33.4Zm-.1-11.2a5.11,5.11,0,0,0-4.9,4.9,4.8,4.8,0,0,0,1.5,3.4A4.85,4.85,0,0,0,52.9,32a4.42,4.42,0,0,0,3.3-1.5,4.8,4.8,0,0,0,1.5-3.4A5,5,0,0,0,52.8,22.2Z"/><path class="cls-2" d="M27.2,38.8a.76.76,0,0,1-.5-.2c-.1-.1-.2-.3-.4-.4a12.36,12.36,0,0,0-9.5-3.5h-.9a12.31,12.31,0,0,0-8.7,3.8.71.71,0,0,1-1-1,13.77,13.77,0,0,1,9.6-4.2h.9a13.29,13.29,0,0,1,10.5,3.9l.5.5a.68.68,0,0,1-.1,1C27.6,38.8,27.4,38.8,27.2,38.8Z"/><path class="cls-2" d="M17,33.4h0a6.73,6.73,0,0,1-4.5-1.9,6.31,6.31,0,0,1-1.9-4.4,6.54,6.54,0,0,1,6.3-6.3A6.46,6.46,0,0,1,23.2,27a6.31,6.31,0,0,1-1.9,4.4A5.65,5.65,0,0,1,17,33.4Zm0-11.2a5.11,5.11,0,0,0-4.9,4.9,4.8,4.8,0,0,0,1.5,3.4A4.85,4.85,0,0,0,17.1,32a4.42,4.42,0,0,0,3.3-1.5,4.8,4.8,0,0,0,1.5-3.4A5,5,0,0,0,17,22.2Z"/></g></g></svg>