<?xml version="1.0" encoding="utf-8"?>
<!-- Generator: Adobe Illustrator 24.3.0, SVG Export Plug-In . SVG Version: 6.00 Build 0)  -->
<svg version="1.1" id="Layer_1" xmlns="http://www.w3.org/2000/svg" xmlns:xlink="http://www.w3.org/1999/xlink" x="0px" y="0px"
	 viewBox="0 0 21 21" style="enable-background:new 0 0 21 21;" xml:space="preserve">
<style type="text/css">
	.st0{fill:none;stroke:#666666;stroke-linecap:round;stroke-linejoin:round;}
	.st1{fill-rule:evenodd;clip-rule:evenodd;fill:#666666;stroke:#666666;stroke-linecap:round;stroke-linejoin:round;}
</style>
<g transform="translate(3 3)">
	<path class="st0" d="M0.5-2.3h14c1.5,0,2.8,1.3,2.8,2.8v14c0,1.5-1.3,2.8-2.8,2.8h-14c-1.5,0-2.8-1.3-2.8-2.8v-14
		C-2.3-1.1-1.1-2.3,0.5-2.3z"/>
	<path class="st1" d="M0.5,0.5h14c1.5,0,2.8,1.3,2.8,2.8V0.5c0-1.4-1.3-2.8-2.8-2.8h-14c-1.5,0-2.8,1.4-2.8,2.8v2.8
		C-2.3,1.7-1.1,0.5,0.5,0.5z"/>
	<path class="st0" d="M3.3,7.5h1.4"/>
	<path class="st0" d="M3.3,4.7h5.6"/>
	<path class="st0" d="M3.3,10.3h8.4"/>
	<path class="st0" d="M3.3,13.1h5.6"/>
</g>
</svg>
