<svg xmlns="http://www.w3.org/2000/svg" viewBox="0 0 98.37 98.32"><defs><style>.cls-1{fill:#fff;}.cls-2{fill:none;stroke:#24a069;stroke-miterlimit:10;stroke-width:2px;}</style></defs><g id="Calque_2" data-name="Calque 2"><g id="Calque_1-2" data-name="Calque 1"><path class="cls-1" d="M0,56.24V42.06c.89-.58.66-1.59.84-2.4Q7.35,10.92,35.41,1.91C37.75,1.16,40.17.63,42.55,0H55.76c.2.64.77.44,1.21.53,27.3,5,45.1,29.67,40.74,56.48a49.24,49.24,0,0,1-96.6,3.07C.82,58.78,1,57.35,0,56.24Z"/><path class="cls-2" d="M17.67,82.32a22.58,22.58,0,0,1-2.09-2.06c-3.31-3.81-3.29-6.6.2-10.26,8.13-8.53,18.27-12.46,29.88-13l2.92-.17C61.05,56.32,72,59.94,81.09,68.73c.46.45.92.91,1.35,1.4,3.56,4,3.6,6.77-.16,10.61"/><path class="cls-2" d="M49.05,16.06c9.66,0,18.16,8.39,18.2,18s-8.55,18.27-18,18.27c-9.67,0-18.41-8.65-18.38-18.19S39.47,16.07,49.05,16.06Z"/></g></g></svg>