<svg xmlns="http://www.w3.org/2000/svg" viewBox="0 0 60.8 60.52"><defs><style>.cls-1{fill:#24a069;}</style></defs><g id="Layer_2" data-name="Layer 2"><g id="Calque_1" data-name="Calque 1"><path class="cls-1" d="M0,31.9V28.2a.1.1,0,0,0,.1-.1c0-.5.1-.9.1-1.4A16,16,0,0,1,1.7,21a8.8,8.8,0,0,1,4.5-4.6,9,9,0,0,1,3.9-.7H30.2c.2,0,.3,0,.3-.3V13.9c0-.3-.1-.3-.3-.3h-14c-.5,0-.4.1-.4-.4V6.8a4.45,4.45,0,0,1,1.3-3.3,9.48,9.48,0,0,1,4.1-2.4A22.75,22.75,0,0,1,27,.1,4.1,4.1,0,0,0,28.1,0h4.4l.1.1c.6.1,1.3.1,1.9.2a15.17,15.17,0,0,1,2.1.3,15.35,15.35,0,0,1,5.1,1.7,7.47,7.47,0,0,1,3.1,3,6.7,6.7,0,0,1,.7,3.1v13a12.1,12.1,0,0,1-.1,1.9,6.74,6.74,0,0,1-3.1,4.9,9.8,9.8,0,0,1-5.2,1.5H22.8a7.49,7.49,0,0,0-2.1.2,7.25,7.25,0,0,0-4.8,2.8,9.65,9.65,0,0,0-1.8,5.7v7a.27.27,0,0,1-.3.3H9.3a7.2,7.2,0,0,1-5-2A11,11,0,0,1,1.4,39a20.54,20.54,0,0,1-1-5.4A12,12,0,0,1,0,31.9ZM19.5,7.2a2.6,2.6,0,0,0,2.7,2.6A2.7,2.7,0,1,0,22,4.4,2.89,2.89,0,0,0,19.5,7.2Z"/><path class="cls-1" d="M60.8,25.9v8.4c-.1.1,0,.2-.1.2a16.67,16.67,0,0,1-1.8,5.6,8.79,8.79,0,0,1-4.6,4.1,10.24,10.24,0,0,1-3.5.5H30.6c-.2,0-.2.1-.2.2v1.5c0,.4,0,.4.4.4H44.7c.4,0,.4,0,.4.4v6.4a4.72,4.72,0,0,1-1,3A7.86,7.86,0,0,1,40.6,59a22.9,22.9,0,0,1-6.8,1.4,37.73,37.73,0,0,1-8.9-.3,15.78,15.78,0,0,1-6-2,6.49,6.49,0,0,1-3.3-5.9V39.3a12.1,12.1,0,0,1,.1-1.9,6.55,6.55,0,0,1,3.1-4.8A9.8,9.8,0,0,1,24,31.1H38.4a8.2,8.2,0,0,0,2.2-.2A7.15,7.15,0,0,0,45.9,27,9.2,9.2,0,0,0,47,22.4V15.6c0-.4,0-.4.4-.4H52a6.71,6.71,0,0,1,3.7,1.1,10.21,10.21,0,0,1,3.4,4.3,17.6,17.6,0,0,1,1,3A11.88,11.88,0,0,1,60.8,25.9ZM41.5,53.2a2.65,2.65,0,1,0-2.7,2.6A2.55,2.55,0,0,0,41.5,53.2Z"/></g></g></svg>