<svg xmlns="http://www.w3.org/2000/svg" viewBox="0 0 99.6 99.6"><defs><style>.cls-1{fill:#fff;}.cls-2{fill:#1e8956;}</style></defs><g id="Layer_2" data-name="Layer 2"><g id="Calque_1" data-name="Calque 1"><circle class="cls-1" cx="49.8" cy="49.8" r="49.8" transform="translate(-8.52 89.28) rotate(-79.1)"/><path class="cls-2" d="M51.9,73c-15.2,0-37.7-2.2-37.7-8.3,0-2.5,3.5-4.4,10.6-5.9a1,1,0,1,1,.4,2c-7.1,1.5-9,3.2-9,4,0,2.6,13.9,6.3,35.7,6.3s35.7-3.7,35.7-6.3c0-.5-2-2.4-5.6-2.9a1,1,0,0,1,.3-1.9c4,.6,7.4,2.8,7.4,4.9C89.6,70.8,67,73,51.9,73Z"/><path class="cls-2" d="M80.4,66.7a.94.94,0,0,1-1-1v-20h-6v5a.94.94,0,0,1-1,1H62.8a1.06,1.06,0,0,1-1-.9L60.4,39.7h-8L51,50.8a1.06,1.06,0,0,1-1,.9H38.1L27,65.5a1,1,0,1,1-1.6-1.2L36.8,50.1a1.23,1.23,0,0,1,.8-.4H49.1l1.4-11.1a1.06,1.06,0,0,1,1-.9h9.8a1.06,1.06,0,0,1,1,.9l1.4,11.1h7.7v-5a.94.94,0,0,1,1-1h8a.94.94,0,0,1,1,1v21A.94.94,0,0,1,80.4,66.7Z"/><path class="cls-2" d="M26.8,51.3a1.23,1.23,0,0,1-.8-.4l-4.9-7.3a1,1,0,0,1,1.7-1.1l4.9,7.3a1,1,0,0,1-.3,1.4C27.2,51.2,27,51.3,26.8,51.3Z"/><path class="cls-2" d="M28.7,63.1a.91.91,0,0,1-.8-.4l-4-5.1a1,1,0,0,1-.2-.7l.6-4.5a1,1,0,0,1,.4-.7l5-3.9a1,1,0,0,1,.7-.2l4.5.5a1,1,0,0,1,.7.4l1.7,2.2a1,1,0,0,1-.2,1.4,1,1,0,0,1-1.4-.2l-1.4-1.8-3.7-.4-4.4,3.4-.5,3.7,3.7,4.7a1,1,0,0,1-.2,1.4A.76.76,0,0,1,28.7,63.1Z"/><path class="cls-2" d="M17.3,43.6a2,2,0,0,1-1.4-.5L14,40.6a3.61,3.61,0,0,1,.6-5l2.6-2a3.47,3.47,0,0,1,5,.6l1.9,2.5c.3.4.8,1-1.4,5.5-.1.3-.4.4-.6.5A27.57,27.57,0,0,1,17.3,43.6Zm-.1-2h0a18,18,0,0,0,3.8-.7,19.29,19.29,0,0,0,1.3-3.2l-1.7-2.2a1.59,1.59,0,0,0-2.2-.3l-2.6,2a1.58,1.58,0,0,0-.3,2.2Z"/></g></g></svg>