<svg xmlns="http://www.w3.org/2000/svg" width="114.057" height="102.467" viewBox="0 0 114.057 102.467">
  <path id="Sigle-2021_white" data-name="Sigle-2021" d="M-5135.6,36.93l-37.126-64.3a18.559,18.559,0,0,1,6.792-25.35,18.559,18.559,0,0,1,25.35,6.792l37.125,64.3a18.557,18.557,0,0,1-6.792,25.349,18.471,18.471,0,0,1-9.261,2.49A18.548,18.548,0,0,1-5135.6,36.93Zm37.177-73.5a18.111,18.111,0,0,1,18.11-18.111A18.111,18.111,0,0,1-5062.2-36.568a18.111,18.111,0,0,1-18.111,18.111A18.111,18.111,0,0,1-5098.419-36.568Z" transform="translate(5175.755 55.755)" fill="#333" stroke="rgba(0,0,0,0)" stroke-width="1"/>
</svg>
