<svg width="140" height="90" viewBox="0 0 140 90" fill="none" xmlns="http://www.w3.org/2000/svg">
<path d="M4.18451 36.5496V38.06V40.5477V46.6781V52.7196H0.615479V49.61V46.0562V39.8369V36.5496H4.18451Z" fill="#070808"/>
<path d="M11.8574 36.5497C11.8574 37.1716 11.9466 38.06 12.0358 39.1262C12.3035 38.682 12.5712 38.3266 12.8389 38.06C13.9096 36.905 15.3372 36.2831 17.1217 36.2831C18.9955 36.2831 20.5123 36.8162 21.583 37.9712C21.9399 38.3266 22.2076 38.682 22.386 39.1262C22.6537 38.682 22.9214 38.3266 23.2783 37.9712C24.5275 36.8162 26.0443 36.1943 28.0965 36.1943C29.9702 36.1943 31.4871 36.7274 32.5578 37.8824C33.6285 39.0374 34.1639 40.8143 34.1639 43.2131V52.6308H30.5948V49.4324V43.2131C30.5948 41.7027 30.2379 40.6366 29.6133 40.0147C28.9888 39.3927 28.1857 39.0374 27.2042 39.0374C26.2228 39.0374 25.3305 39.3927 24.5275 40.0147C23.7244 40.6366 23.2783 41.7027 23.2783 43.2131V52.6308H19.7093V49.4324V43.2131C19.7093 41.7027 19.3524 40.6366 18.7278 40.0147C18.1032 39.3927 17.3002 39.0374 16.3187 39.0374C15.3372 39.0374 14.4449 39.3927 13.6419 40.0147C12.8389 40.6366 12.3927 41.7027 12.3927 43.2131V52.6308H8.64526V49.4324V45.8785V39.6593V36.372H11.8574V36.5497Z" fill="#070808"/>
<path d="M50.9384 52.7196C50.9384 52.1865 50.8492 51.3869 50.76 50.3208C50.5815 50.6762 50.3138 50.9427 50.0462 51.2092C48.797 52.3642 47.1909 52.9862 45.228 52.9862C43.1758 52.9862 41.5697 52.4531 40.4098 51.2981C39.1606 50.1431 38.6252 48.3662 38.6252 45.8785V36.5496H42.1943V39.7481V45.9673C42.1943 47.4777 42.6404 48.5438 43.4434 49.1658C44.2465 49.7877 45.228 50.1431 46.2987 50.1431C47.3694 50.1431 48.3509 49.7877 49.3323 49.1658C50.3138 48.5438 50.8492 47.3889 50.8492 45.9673V45.4342V40.8142V36.5496H54.4182V39.7481V43.3019V49.5212V52.8085H50.9384V52.7196Z" fill="#070808"/>
<path d="M63.3411 39.5704C62.7166 39.9258 62.3596 40.4589 62.3596 41.0808C62.3596 41.8804 62.8058 42.4135 63.7873 42.68C64.7687 42.9466 65.8395 43.1242 67.0886 43.3908C67.7132 43.4796 68.427 43.6573 69.0516 43.835C69.6762 44.0127 70.3007 44.1904 70.8361 44.4569C71.5499 44.8123 72.0853 45.2566 72.5314 45.8785C72.9775 46.5004 73.2452 47.2112 73.2452 48.1885C73.2452 48.8104 73.156 49.4323 72.8883 49.9654C72.6206 50.4985 72.3529 50.9427 71.9068 51.2981C71.1038 51.8312 70.2115 52.3643 69.0516 52.6308C67.8916 52.8973 66.7317 53.075 65.661 53.075C64.5903 53.075 63.5196 52.8973 62.3596 52.6308C61.1997 52.3643 60.3075 51.8312 59.5936 51.1204C59.1475 50.765 58.8798 50.3208 58.7014 49.7877C58.4337 49.2546 58.3445 48.7216 58.3445 48.0108H62.0027C62.0027 48.8104 62.4489 49.3435 63.2519 49.6989C64.0549 50.0543 64.858 50.2319 65.7502 50.2319C66.7317 50.2319 67.624 50.0543 68.427 49.6989C69.23 49.3435 69.5869 48.8993 69.5869 48.1885C69.5869 47.7443 69.4085 47.3889 69.1408 47.1223C68.8731 46.8558 68.427 46.5893 67.8917 46.4116C66.9994 46.145 65.8395 45.8785 64.5011 45.7008C63.1627 45.5231 62.0027 45.1677 60.932 44.6346C60.2182 44.2793 59.6829 43.835 59.2367 43.2131C58.8798 42.7689 58.6122 42.0581 58.6122 41.0808C58.6122 39.9258 58.9691 39.0373 59.7721 38.3266C60.4859 37.6158 61.3782 37.0827 62.3596 36.7273C62.895 36.5496 63.4304 36.3719 64.0549 36.2831C64.5903 36.1943 65.2149 36.1054 65.661 36.1054C66.1964 36.1054 66.7317 36.1943 67.2671 36.2831C67.8024 36.3719 68.427 36.5496 68.8731 36.7273C69.8546 37.0827 70.7469 37.7046 71.5499 38.5043C72.3529 39.3039 72.7098 40.2812 72.7098 41.525H69.0516C69.0516 40.8143 68.6947 40.1923 68.0701 39.7481C67.4455 39.215 66.6425 39.0373 65.7502 39.0373C64.7687 38.9485 63.9657 39.215 63.3411 39.5704Z" fill="#070808"/>
<path d="M78.8665 50.765C77.3497 49.1658 76.5466 47.1224 76.5466 44.6347C76.5466 42.147 77.3497 40.1035 78.8665 38.5931C80.4726 36.9939 82.5248 36.1943 85.2015 36.1943C87.4322 36.1943 89.2167 36.8162 90.5551 38.06C91.8935 39.3039 92.7857 40.7254 93.1426 42.5024H91.0904C90.2874 42.5024 89.8413 42.5024 89.6628 42.5024C89.3952 41.525 88.7706 40.7254 88.0568 40.1035C87.2537 39.4816 86.3615 39.215 85.2015 39.215C83.6847 39.215 82.5248 39.7481 81.6325 40.7254C80.651 41.7916 80.2049 43.1243 80.2049 44.7235C80.2049 46.4116 80.651 47.7443 81.6325 48.7216C82.5248 49.7877 83.7739 50.3208 85.2015 50.3208C86.3615 50.3208 87.2537 49.9654 88.0568 49.3435C88.8598 48.7216 89.3952 47.922 89.6628 46.9447H91.3581H93.1426C92.7857 48.6327 91.8935 50.0543 90.5551 51.387C89.2167 52.6308 87.4322 53.2527 85.2015 53.2527C82.5248 53.075 80.4726 52.2754 78.8665 50.765Z" fill="#070808"/>
<path d="M100.549 36.5496V38.06V40.5477V46.6781V52.7196H96.9797V49.61V46.0562V39.8369V36.5496H100.549Z" fill="#070808"/>
<path d="M106.794 50.765C105.278 49.1658 104.475 47.1224 104.475 44.6347C104.475 42.147 105.278 40.1035 106.794 38.5931C108.401 36.9939 110.453 36.1943 113.13 36.1943C115.36 36.1943 117.145 36.8162 118.483 38.06C119.821 39.3039 120.714 40.7254 121.071 42.5024H119.018C118.215 42.5024 117.769 42.5024 117.591 42.5024C117.323 41.525 116.699 40.7254 115.985 40.1035C115.182 39.4816 114.289 39.215 113.13 39.215C111.613 39.215 110.453 39.7481 109.56 40.7254C108.579 41.7916 108.133 43.1243 108.133 44.7235C108.133 46.4116 108.579 47.7443 109.56 48.7216C110.453 49.7877 111.702 50.3208 113.13 50.3208C114.289 50.3208 115.182 49.9654 115.985 49.3435C116.788 48.7216 117.323 47.922 117.591 46.9447H119.286H121.071C120.714 48.6327 119.821 50.0543 118.483 51.387C117.145 52.6308 115.36 53.2527 113.13 53.2527C110.542 53.075 108.401 52.2754 106.794 50.765Z" fill="#070808"/>
<path d="M126.602 37.7935C127.851 36.8162 129.725 36.2831 132.134 36.2831C134.543 36.2831 136.328 36.8162 137.666 37.7935C139.004 38.8596 139.629 40.5477 139.629 42.9465V49.1658C139.629 50.3208 139.807 52.7196 139.807 52.7196H137.934H136.328C136.328 52.7196 136.149 50.9427 136.149 50.6762C135.971 50.8539 135.881 51.1204 135.703 51.2981C134.632 52.5419 132.937 53.075 130.439 53.075C128.476 53.075 126.87 52.6308 125.71 51.7423C124.55 50.8539 124.014 49.61 124.014 48.0108C124.014 46.4115 124.639 45.2565 125.977 44.4569C127.227 43.6573 129.189 43.3019 131.688 43.3019H136.06V42.3246C136.06 41.0808 135.614 40.2812 134.811 39.8369C134.008 39.3927 133.115 39.215 132.134 39.215C131.152 39.215 130.26 39.3927 129.457 39.7481C128.654 40.1035 128.297 40.7254 128.297 41.525H124.639C124.639 40.1035 125.353 38.8596 126.602 37.7935ZM131.688 45.6119C130.349 45.6119 129.368 45.8785 128.654 46.2339C127.94 46.6781 127.583 47.3 127.583 48.1885C127.583 48.8992 127.851 49.5212 128.476 49.9654C129.1 50.4096 129.993 50.5873 131.242 50.5873C132.58 50.5873 133.74 50.2319 134.632 49.5212C135.525 48.8104 135.971 47.5665 135.971 45.7008C135.078 45.7008 133.651 45.6119 131.688 45.6119Z" fill="#070808"/>
<path d="M4.18427 27.7539H0.615234V31.3078H4.18427V27.7539Z" fill="#070808"/>
<path d="M100.549 27.7538H96.9797V31.3077H100.549V27.7538Z" fill="#070808"/>
<path d="M12.2143 57.9615H8.64526V68.6231H12.2143V57.9615Z" fill="#4B68B0"/>
<path d="M68.4262 57.9615H64.8572V75.7308H68.4262V57.9615Z" fill="#9C5698"/>
<path d="M48.7966 57.9615L52.3657 58.0504V72.1769H48.7966V57.9615Z" fill="#DE8A46"/>
<path d="M36.3049 57.9615H32.7358V82.8385H36.3049V57.9615Z" fill="#9C5698"/>
<path d="M20.2441 57.9615H16.675V79.2846H20.2441V57.9615Z" fill="#5553A0"/>
<path d="M44.3356 57.9615H40.7666V75.7308H44.3356V57.9615Z" fill="#BC6F6B"/>
<path d="M28.2748 57.9615H24.7058V89.0577H28.2748V57.9615Z" fill="#624797"/>
<path d="M76.457 57.9615H72.8879V68.6231H76.457V57.9615Z" fill="#624797"/>
<path d="M60.3962 57.9615H56.8271V79.2846H60.3962V57.9615Z" fill="#BC6F6B"/>
<path d="M84.487 57.9615H80.918V72.1769H84.487V57.9615Z" fill="#5553A0"/>
<path d="M92.5178 57.9615H88.9487V68.6231H92.5178V57.9615Z" fill="#4B68B0"/>
<path d="M12.2141 20.6461H8.64502V31.3077H12.2141V20.6461Z" fill="#4B68B0"/>
<path d="M68.4262 13.5385H64.8572V31.3077H68.4262V13.5385Z" fill="#9C5698"/>
<path d="M48.7964 31.3077L52.3654 31.2188V17.0923H48.7964V31.3077Z" fill="#DE8A46"/>
<path d="M36.3049 6.43079H32.7358V31.3077H36.3049V6.43079Z" fill="#9C5698"/>
<path d="M20.2441 9.98462H16.675V31.3077H20.2441V9.98462Z" fill="#5553A0"/>
<path d="M44.3354 13.5385H40.7664V31.3077H44.3354V13.5385Z" fill="#BC6F6B"/>
<path d="M28.2748 0.211548H24.7058V31.3077H28.2748V0.211548Z" fill="#624797"/>
<path d="M76.457 20.6461H72.8879V31.3077H76.457V20.6461Z" fill="#624797"/>
<path d="M60.3962 9.98462H56.8271V31.3077H60.3962V9.98462Z" fill="#BC6F6B"/>
<path d="M84.4868 17.0923H80.9177V31.3077H84.4868V17.0923Z" fill="#5553A0"/>
<path d="M92.5175 20.6461H88.9485V31.3077H92.5175V20.6461Z" fill="#4B68B0"/>
</svg>
