<svg width="94" height="87" viewBox="0 0 94 87" fill="none" xmlns="http://www.w3.org/2000/svg">
<path d="M57.7534 86.302C61.0497 85.9127 64.1125 85.2119 67.3049 84.1217C70.2379 83.1354 74.9617 80.9033 77.4015 79.3719C82.7742 76.0237 87.9912 71.1441 91.9364 65.8752L93.0265 64.4217L92.3258 63.9026C91.9364 63.6171 89.9638 62.2675 87.9653 60.9178L84.3056 58.4261L82.4368 60.7102C77.4015 66.9135 73.3006 70.625 68.5248 73.2465C63.4895 76.0237 58.4802 77.0879 52.8739 76.6207C46.8782 76.1016 41.9467 74.4145 37.2488 71.2739C34.8609 69.6647 31.1493 65.9271 29.5401 63.5133C25.4652 57.3619 23.5704 50.1723 23.9078 41.9965C24.2972 32.1854 27.1522 25.0217 33.0181 19.104C37.119 14.9771 41.8169 12.4335 47.9424 11.0838C50.5638 10.5128 56.6633 10.3571 59.2329 10.7983C67.3309 12.1999 75.5327 17.6245 82.8002 26.3714C83.6567 27.3837 84.4613 28.2142 84.5911 28.2142C84.9026 28.1883 93.2601 22.8156 93.2601 22.6339C93.2601 22.556 92.6372 21.6476 91.8586 20.5834C83.501 9.03334 72.7296 2.8041 57.9611 0.935321C55.0022 0.571948 46.8522 0.623859 43.4002 1.03914C30.2669 2.62241 19.8848 7.19053 12.0463 14.8473C8.4645 18.3513 6.10258 21.5438 4.10403 25.7225C-1.29465 36.8833 -1.34656 50.4059 3.97426 61.2033C11.086 75.6344 26.5034 84.7966 46.5148 86.4318C49.7333 86.6654 55.08 86.6134 57.7534 86.302Z" fill="#41729C"/>
<path d="M42.4923 63.7469C45.8924 61.9819 47.891 53.5465 48.2025 39.4528C48.2544 36.8573 48.3582 33.7427 48.4101 32.5228L48.5139 30.2906H53.7569H58.9998L58.87 31.1212C58.2471 35.5336 57.5204 46.5386 57.4944 52.1189C57.4685 56.2977 57.4944 56.5313 57.9876 57.9848C59.5449 62.6308 63.0229 64.7851 66.7604 63.4873C68.9147 62.7346 70.7835 60.8139 72.0812 58.0367C72.6004 56.9206 73.2752 54.6106 73.2752 54.6106C73.2752 54.6106 72.5225 56.2199 71.9255 56.8168C70.6797 58.0627 69.5117 58.5299 67.7208 58.5299C65.5665 58.5299 63.8534 57.3359 62.8672 55.0778C61.9847 53.1052 61.8289 51.496 61.8289 44.9813C61.8289 39.1933 61.9847 36.3122 62.5038 32.1075L62.7374 30.2906L68.0063 30.2387L73.2752 30.1868L73.3271 27.4615L73.379 24.7362L59.3113 24.7881C45.4512 24.84 45.2176 24.866 43.6603 25.2813C39.7151 26.3714 37.3532 28.344 35.147 32.3411L34.3943 33.7167L35.3546 32.8861C37.4051 31.0952 39.8189 30.3685 43.9458 30.2387L46.2299 30.1868L46.2818 31.4586C46.3596 33.1716 45.8146 40.3612 45.3214 43.8133C44.439 50.1463 42.8816 54.4809 40.7793 56.4275C39.8449 57.31 38.5212 58.0627 37.1975 58.5039C36.0814 58.8673 35.7699 59.3345 35.9256 60.3467C36.1073 61.5666 36.7562 62.7865 37.483 63.3056C38.8586 64.3179 41.0648 64.4996 42.4923 63.7469Z" fill="#020203"/>
</svg>
