<svg width="94" height="87" viewBox="0 0 94 87" fill="none" xmlns="http://www.w3.org/2000/svg">
<path d="M58.3306 86.302C61.6269 85.9127 64.6896 85.2119 67.8821 84.1217C70.815 83.1354 75.5389 80.9033 77.9787 79.3719C83.3514 76.0237 88.5684 71.1441 92.5136 65.8752L93.6037 64.4217L92.9029 63.9026C92.5136 63.6171 90.541 62.2675 88.5424 60.9178L84.8828 58.4261L83.014 60.7102C77.9787 66.9135 73.8777 70.625 69.102 73.2465C64.0667 76.0237 59.0573 77.0879 53.451 76.6207C47.4553 76.1016 42.5239 74.4145 37.826 71.2739C35.4381 69.6647 31.7265 65.9271 30.1173 63.5133C26.0423 57.3619 24.1476 50.1723 24.485 41.9965C24.8743 32.1854 27.7294 25.0217 33.5953 19.104C37.6962 14.9771 42.3941 12.4335 48.5195 11.0838C51.141 10.5128 57.2405 10.3571 59.81 10.7983C67.9081 12.1999 76.1099 17.6245 83.3773 26.3714C84.2339 27.3837 85.0385 28.2142 85.1683 28.2142C85.4797 28.1883 93.8373 22.8156 93.8373 22.6339C93.8373 22.556 93.2144 21.6476 92.4357 20.5834C84.0781 9.03334 73.3067 2.8041 58.5382 0.935321C55.5793 0.571948 47.4294 0.623859 43.9774 1.03914C30.844 2.62241 20.4619 7.19053 12.6235 14.8473C9.04165 18.3513 6.67973 21.5438 4.68118 25.7225C-0.717502 36.8833 -0.769412 50.4059 4.5514 61.2033C11.6631 75.6344 27.0805 84.7966 47.092 86.4318C50.3104 86.6654 55.6572 86.6134 58.3306 86.302Z" fill="#FF696B"/>
<path d="M43.0692 63.7469C46.4694 61.9819 48.4679 53.5465 48.7794 39.4528C48.8313 36.8573 48.9351 33.7427 48.987 32.5228L49.0908 30.2906H54.3338H59.5767L59.447 31.1212C58.824 35.5336 58.0973 46.5386 58.0713 52.1189C58.0454 56.2977 58.0713 56.5313 58.5645 57.9848C60.1218 62.6308 63.5998 64.7851 67.3373 63.4873C69.4916 62.7346 71.3604 60.8139 72.6582 58.0367C73.1773 56.9206 73.8521 54.6106 73.8521 54.6106C73.8521 54.6106 73.0994 56.2199 72.5024 56.8168C71.2566 58.0627 70.0886 58.5299 68.2977 58.5299C66.1434 58.5299 64.4304 57.3359 63.4441 55.0778C62.5616 53.1052 62.4058 51.496 62.4058 44.9813C62.4058 39.1933 62.5616 36.3122 63.0807 32.1075L63.3143 30.2906L68.5832 30.2387L73.8521 30.1868L73.904 27.4615L73.9559 24.7362L59.8882 24.7881C46.0281 24.84 45.7945 24.866 44.2372 25.2813C40.292 26.3714 37.9301 28.344 35.7239 32.3411L34.9712 33.7167L35.9315 32.8861C37.982 31.0952 40.3958 30.3685 44.5227 30.2387L46.8068 30.1868L46.8587 31.4586C46.9365 33.1716 46.3915 40.3612 45.8983 43.8133C45.0159 50.1463 43.4585 54.4809 41.3562 56.4275C40.4218 57.31 39.0981 58.0627 37.7744 58.5039C36.6583 58.8673 36.3468 59.3345 36.5026 60.3467C36.6842 61.5666 37.3331 62.7865 38.0599 63.3056C39.4355 64.3179 41.6417 64.4996 43.0692 63.7469Z" fill="#020203"/>
</svg>
