<svg width="81" height="80" viewBox="0 0 81 80" fill="none" xmlns="http://www.w3.org/2000/svg">
<path d="M54.7246 44.4917L40.6321 30.3992L26.5396 44.4917L30.075 48.0271L38.1321 39.9701V77.5001H43.1321V39.9701L51.1891 48.0271L54.7246 44.4917Z" fill="#41729C"/>
<path d="M63.126 25.227V25C63.126 12.5938 53.0322 2.5 40.626 2.5C28.2197 2.5 18.126 12.5938 18.126 25V25.3892C14.423 26.088 11.0094 27.8662 8.31441 30.5C6.67437 32.0918 5.37019 33.9963 4.47901 36.1009C3.58783 38.2055 3.12775 40.4675 3.12598 42.753C3.12598 47.6153 5.1241 52.247 8.75254 55.795C12.2979 59.2617 17.085 61.25 21.8869 61.25H31.876V56.25H21.8869C14.5563 56.25 8.12598 49.943 8.12598 42.753C8.12598 36.1486 13.6947 30.5786 20.8036 30.0725L23.126 29.907V25C23.126 20.3587 24.9697 15.9075 28.2516 12.6256C31.5335 9.34374 35.9847 7.5 40.626 7.5C45.2673 7.5 49.7185 9.34374 53.0003 12.6256C56.2822 15.9075 58.126 20.3587 58.126 25V30.0062L60.5947 30.0375C67.856 30.1294 73.126 35.477 73.126 42.753C73.126 50.3214 67.555 56.25 60.4432 56.25H49.376V61.25H60.4432C62.8253 61.2578 65.1829 60.7693 67.3657 59.8155C69.5485 58.8617 71.5087 57.4636 73.1213 55.7103C76.3486 52.2405 78.126 47.6389 78.126 42.753C78.126 33.6222 71.8316 26.4675 63.126 25.227Z" fill="#41729C"/>
</svg>
