<svg xmlns="http://www.w3.org/2000/svg" width="139" height="46" viewBox="0 0 139 46" fill="none">
    <g clip-path="url(#clip0_12780_371153)">
        <path
            d="M37.2926 20.4247C37.2926 19.9211 37.1407 19.5293 36.8369 19.2575C36.5331 18.9858 36.1255 18.8499 35.6298 18.8499H33.7832V22.0155H35.6298C36.1255 22.0155 36.5252 21.8716 36.8369 21.5918C37.1487 21.304 37.3006 20.9203 37.3006 20.4327"
            fill="#484D7B" />
        <path
            d="M39.7782 28.8104C39.5224 29.0902 39.2027 29.2261 38.8269 29.2261C38.3953 29.2261 38.0515 29.0742 37.7877 28.7625L33.8067 23.9421H33.7747V27.8352C33.7747 28.2748 33.6548 28.6186 33.407 28.8584C33.1592 29.0982 32.8394 29.2181 32.4397 29.2181C32.04 29.2181 31.7283 29.0902 31.4725 28.8424C31.2166 28.5946 31.0887 28.2509 31.0887 27.8272V17.7627C31.0887 17.323 31.2087 16.9793 31.4405 16.7315C31.6723 16.4837 32.016 16.3638 32.4637 16.3638H35.6134C37.0443 16.3638 38.1395 16.6915 38.9149 17.355C39.6903 18.0185 40.074 19.0338 40.074 20.4087C40.074 20.8964 39.9941 21.328 39.8182 21.7197C39.6503 22.1115 39.4105 22.4472 39.1067 22.727C38.803 23.0068 38.4512 23.2386 38.0595 23.4065C37.6678 23.5824 37.2361 23.7023 36.7645 23.7902L39.8182 27.0438C40.05 27.2996 40.1699 27.5634 40.1699 27.8432C40.1699 28.2029 40.042 28.5227 39.7862 28.8024M29.1702 28.6586C29.0583 28.8424 28.9064 28.9783 28.7225 29.0742C28.5386 29.1702 28.3308 29.2261 28.115 29.2261C27.4515 29.2261 27.0118 28.9144 26.8039 28.2988L26.2683 26.6201H21.2961L20.7525 28.2828C20.5526 28.9144 20.1289 29.2261 19.4654 29.2261C19.0977 29.2261 18.7859 29.1062 18.5221 28.8664C18.2663 28.6266 18.1304 28.3308 18.1304 27.9791C18.1304 27.8112 18.1704 27.6113 18.2503 27.3875L21.8556 17.6508C22.0235 17.2031 22.2793 16.8434 22.6071 16.5716C22.9428 16.2998 23.3265 16.1639 23.7662 16.1639C24.2299 16.1639 24.6216 16.2998 24.9493 16.5636C25.2771 16.8354 25.5249 17.1951 25.6768 17.6508L29.1942 27.3875C29.2901 27.6433 29.3301 27.8671 29.3301 28.051C29.3301 28.2748 29.2741 28.4827 29.1622 28.6666M16.5556 25.6848C16.2838 26.4282 15.8921 27.0677 15.3885 27.6113C14.8769 28.1549 14.2613 28.5786 13.5339 28.8824C12.8064 29.1862 12.007 29.338 11.1277 29.338C9.93657 29.338 8.87336 29.0503 7.93806 28.4667C7.00276 27.8831 6.2753 27.0917 5.75569 26.0845C5.23608 25.0772 4.97228 23.9661 4.97228 22.743C4.97228 21.8157 5.12417 20.9523 5.41994 20.1449C5.71572 19.3375 6.13941 18.6341 6.69099 18.0345C7.24258 17.435 7.8901 16.9713 8.64153 16.6435C9.39297 16.3158 10.2244 16.1479 11.1277 16.1479C11.7912 16.1479 12.4307 16.2199 13.0382 16.3638C13.6458 16.5076 14.1734 16.6995 14.6211 16.9393C15.0687 17.1791 15.4205 17.4509 15.6763 17.7547C15.9321 18.0585 16.06 18.3623 16.06 18.674C16.06 19.0497 15.9561 19.3535 15.7402 19.5853C15.5244 19.8172 15.2606 19.9291 14.9488 19.9291C14.637 19.9291 14.2373 19.7852 13.7817 19.4974C13.334 19.2096 12.9423 18.9938 12.6226 18.8419C12.3028 18.698 11.8072 18.6261 11.1277 18.6261C10.4162 18.6261 9.80866 18.8179 9.29704 19.1936C8.78543 19.5694 8.40171 20.073 8.1459 20.6965C7.8901 21.32 7.76219 22.0075 7.76219 22.751C7.76219 23.9261 8.04998 24.9014 8.63354 25.6928C9.2171 26.4842 10.0485 26.8759 11.1277 26.8759C11.6313 26.8759 12.1109 26.78 12.5826 26.5801C13.0462 26.3803 13.43 26.0685 13.7257 25.6448C14.0215 25.2211 14.1734 24.6855 14.1734 24.046H12.3588C11.991 24.046 11.6873 23.9341 11.4554 23.7023C11.2236 23.4704 11.1037 23.1667 11.1037 22.7909C11.1037 22.4152 11.2236 22.1354 11.4634 21.9116C11.7032 21.6878 12.007 21.5759 12.3588 21.5759H15.3965C15.9561 21.5759 16.3558 21.7118 16.6036 21.9915C16.8514 22.2713 16.9713 22.703 16.9713 23.2866C16.9713 24.1499 16.8354 24.9493 16.5636 25.6928M41.465 0H3.85312C1.72671 0 0 1.72671 0 3.85312V41.465C0 43.5914 1.72671 45.3181 3.85312 45.3181H41.465C43.5914 45.3181 45.3181 43.5914 45.3181 41.465V3.85312C45.3181 1.72671 43.5914 0 41.465 0Z"
            fill="#484D7B" />
        <path d="M23.7582 18.9458L22.0635 24.1419H25.4609L23.7902 18.9458H23.7582Z" fill="#484D7B" />
        <path
            d="M56.3982 9.66474C56.3982 10.0245 56.0624 10.3123 55.6947 10.3123H52.8249C52.4092 10.3123 52.0654 9.9845 52.0654 9.49687V2.83785C52.0654 2.31025 52.4092 2.02246 52.8249 2.02246C53.2406 2.02246 53.6083 2.31025 53.6083 2.83785V8.97726H55.7347C56.1024 8.97726 56.3982 9.30501 56.3982 9.67274V9.66474Z"
            fill="#484D7B" />
        <path
            d="M61.3699 9.66482C61.3699 10.0245 61.0341 10.3123 60.6664 10.3123H57.7965C57.3809 10.3123 57.0371 10.0325 57.0371 9.49694V2.90188C57.0371 2.37427 57.3809 2.09448 57.7965 2.09448H60.6264C60.9941 2.09448 61.3299 2.37427 61.3299 2.742C61.3299 3.10972 61.0421 3.44547 60.6664 3.44547H58.54V5.50793H60.4186C60.7863 5.50793 61.1141 5.79571 61.1141 6.17143C61.1141 6.54715 60.8343 6.86691 60.4665 6.86691H58.54V8.96135H60.6984C61.0661 8.96135 61.3619 9.29709 61.3619 9.66482H61.3699Z"
            fill="#484D7B" />
        <path
            d="M70.6832 4.09291C70.4114 4.3727 69.9558 4.40468 69.684 4.17285C69.2283 3.7012 68.5568 3.32549 67.7334 3.32549C66.3105 3.32549 65.4232 4.51659 65.4232 6.21133C65.4232 7.90606 66.2146 9.14513 67.7094 9.16911C68.5168 9.17711 69.2123 8.72944 69.5561 8.12989C69.8279 7.74618 69.9478 7.01872 69.9478 7.01872H68.7806C68.301 7.0427 68.0532 6.67498 68.0532 6.29926C68.0532 5.97151 68.285 5.59579 68.7806 5.59579H69.8998C70.5793 5.59579 71.011 5.54782 71.2908 5.90755C71.5706 6.2433 71.5066 7.25854 71.2908 7.74618C70.7871 9.33699 69.5081 10.4322 67.7094 10.4322C65.2473 10.4322 63.9043 8.53759 63.9043 6.21133C63.9043 3.88507 65.3112 2.02246 67.7094 2.02246C68.7167 2.02246 69.8039 2.25429 70.6193 3.06168C70.931 3.34147 70.979 3.8371 70.6752 4.09291H70.6832Z"
            fill="#484D7B" />
        <path
            d="M76.6951 9.66482C76.6951 10.0245 76.3593 10.3123 75.9916 10.3123H73.1217C72.7061 10.3123 72.3623 10.0325 72.3623 9.49694V2.90188C72.3623 2.37427 72.7061 2.09448 73.1217 2.09448H75.9516C76.3193 2.09448 76.6551 2.37427 76.6551 2.742C76.6551 3.10972 76.3673 3.44547 75.9916 3.44547H73.8652V5.50793H75.7438C76.1115 5.50793 76.4393 5.79571 76.4393 6.17143C76.4393 6.54715 76.1595 6.86691 75.7917 6.86691H73.8652V8.96135H76.0236C76.3913 8.96135 76.6871 9.29709 76.6871 9.66482H76.6951Z"
            fill="#484D7B" />
        <path
            d="M77.2779 8.76142C77.4938 8.42567 77.9254 8.37771 78.2932 8.60154C78.9167 9.01723 79.4443 9.0492 79.7241 9.06519C80.8752 9.0572 81.171 8.02597 81.0031 7.5783C80.8033 7.01872 80.2117 6.82687 79.5242 6.52309C78.3491 6.07543 77.3419 5.37995 77.4058 4.14088C77.4698 2.9018 78.3811 2.02246 79.788 2.02246C80.3476 2.02246 81.163 2.1024 81.8185 2.47013C82.1543 2.64599 82.3141 3.08567 82.1543 3.4374C81.9864 3.74118 81.5387 3.973 81.187 3.76516C80.9712 3.60528 80.2677 3.13363 79.5962 3.34947C78.8048 3.56531 78.6209 4.55657 79.5962 5.00423L80.5794 5.45189C81.4268 5.86758 82.2742 6.25929 82.482 7.1786C82.6739 7.82612 82.562 8.74543 81.9144 9.52085C81.163 10.3922 80.0998 10.4961 79.2125 10.4162C78.8447 10.3842 77.9894 10.2563 77.4058 9.7207C77.126 9.43292 77.0461 9.07319 77.2619 8.76941L77.2779 8.76142Z"
            fill="#484D7B" />
        <path
            d="M88.9095 2.75005C88.9095 3.11778 88.6217 3.45353 88.262 3.45353H86.8151V9.60892C86.8151 10.1605 86.5033 10.4243 86.0876 10.4243C85.6719 10.4243 85.3282 10.1525 85.3282 9.60892V3.45353H83.8813C83.5136 3.45353 83.2178 3.11778 83.2178 2.75005C83.2178 2.38233 83.5295 2.10254 83.9213 2.10254H88.214C88.5738 2.10254 88.9095 2.38233 88.9095 2.75005Z"
            fill="#484D7B" />
        <path
            d="M90.2526 10.4322C89.8369 10.4322 89.4932 10.1604 89.4932 9.61678V2.83785C89.4932 2.31025 89.8369 2.02246 90.2526 2.02246C90.6683 2.02246 91.004 2.31025 91.004 2.83785V9.60879C91.004 10.1604 90.6683 10.4242 90.2526 10.4242V10.4322Z"
            fill="#484D7B" />
        <path
            d="M99.5491 6.21133C99.5491 8.53759 98.1022 10.4322 95.728 10.4322C93.3538 10.4322 91.9229 8.53759 91.9229 6.21133C91.9229 3.88507 93.3298 2.02246 95.728 2.02246C98.1262 2.02246 99.5491 3.88507 99.5491 6.21133ZM95.728 9.16112C97.1509 9.16112 98.0223 7.82612 98.0223 6.20333C98.0223 4.58055 97.127 3.27752 95.728 3.27752C94.3291 3.27752 93.4417 4.56456 93.4417 6.20333C93.4417 7.84211 94.2571 9.16112 95.728 9.16112Z"
            fill="#484D7B" />
        <path
            d="M101.892 9.60879C101.892 10.1604 101.556 10.4242 101.14 10.4242C100.725 10.4242 100.381 10.1524 100.381 9.60879V2.83785C100.381 2.31025 100.693 2.02246 101.14 2.02246C101.54 2.02246 101.9 2.638 102.235 3.08567L105.505 7.69022V2.82986C105.505 2.27028 105.833 2.02246 106.24 2.02246C106.648 2.02246 107 2.29426 107 2.82986V9.61678C106.992 10.1284 106.672 10.4322 106.224 10.4322C105.841 10.4322 105.353 9.64076 105.129 9.31301L101.884 4.70845V9.60879H101.892Z"
            fill="#484D7B" />
        <path
            d="M109.59 9.60879C109.59 10.1604 109.254 10.4242 108.839 10.4242C108.423 10.4242 108.079 10.1524 108.079 9.60879V2.83785C108.079 2.31025 108.391 2.02246 108.839 2.02246C109.238 2.02246 109.598 2.638 109.934 3.08567L113.203 7.69022V2.82986C113.203 2.27028 113.531 2.02246 113.939 2.02246C114.346 2.02246 114.698 2.29426 114.698 2.82986V9.61678C114.69 10.1284 114.37 10.4322 113.923 10.4322C113.539 10.4322 113.051 9.64076 112.828 9.31301L109.582 4.70845V9.60879H109.59Z"
            fill="#484D7B" />
        <path
            d="M122.053 10.3841C121.701 10.5041 121.349 10.3282 121.198 10.0004L120.638 8.66543H117.193L116.689 10.0004C116.569 10.3282 116.185 10.5041 115.842 10.3841C115.506 10.2642 115.394 9.80058 115.506 9.49681L117.944 2.98168C118.192 2.31018 118.48 2.0144 119.015 2.0144C119.551 2.0144 119.855 2.30219 120.078 2.94171L122.389 9.48881C122.533 9.79258 122.397 10.2482 122.053 10.3761V10.3841ZM120.262 7.3704L119.031 3.73312L117.688 7.3704H120.262Z"
            fill="#484D7B" />
        <path
            d="M123.891 10.4322C123.476 10.4322 123.132 10.1604 123.132 9.61678V2.83785C123.132 2.31025 123.476 2.02246 123.891 2.02246C124.307 2.02246 124.643 2.31025 124.643 2.83785V9.60879C124.643 10.1604 124.307 10.4242 123.891 10.4242V10.4322Z"
            fill="#484D7B" />
        <path
            d="M131.15 4.59661C131.15 5.89164 130.198 6.85092 128.887 6.83494L131.03 9.25712C131.245 9.47296 131.261 9.9606 130.998 10.2084C130.726 10.4402 130.278 10.4242 130.046 10.1764L127.193 6.99482V9.61685C127.193 10.1684 126.857 10.4322 126.441 10.4322C126.025 10.4322 125.682 10.1604 125.682 9.61685V2.90188C125.682 2.37427 126.025 2.09448 126.441 2.09448H128.919C130.294 2.09448 131.158 3.2696 131.158 4.58862L131.15 4.59661ZM127.185 5.8197H128.559C129.167 5.8197 129.727 5.23613 129.703 4.58062C129.679 3.93311 129.223 3.45347 128.464 3.45347H127.185V5.82769V5.8197Z"
            fill="#484D7B" />
        <path
            d="M136.322 9.66482C136.322 10.0245 135.986 10.3123 135.619 10.3123H132.749C132.333 10.3123 131.989 10.0325 131.989 9.49694V2.90188C131.989 2.37427 132.333 2.09448 132.749 2.09448H135.579C135.946 2.09448 136.282 2.37427 136.282 2.742C136.282 3.10972 135.986 3.44547 135.619 3.44547H133.492V5.50793H135.371C135.738 5.50793 136.066 5.79571 136.066 6.17143C136.066 6.54715 135.786 6.86691 135.419 6.86691H133.492V8.96135H135.651C136.018 8.96135 136.314 9.29709 136.314 9.66482H136.322Z"
            fill="#484D7B" />
        <path
            d="M52.0654 20.6886V14.0935C52.0654 13.5659 52.4092 13.2861 52.8249 13.2861H54.8873C57.3815 13.2861 58.7085 15.0688 58.7085 17.3951C58.7085 19.7213 57.3095 21.504 54.8873 21.504H52.8249C52.4092 21.504 52.0654 21.2242 52.0654 20.6886ZM54.9433 14.6211H53.5763V20.153H54.8553C56.3742 20.153 57.2056 18.754 57.1816 17.3951C57.1576 15.9721 56.4222 14.6211 54.9433 14.6211Z"
            fill="#484D7B" />
        <path
            d="M60.0907 16.156C59.763 15.9961 59.4832 15.7563 59.699 15.3246L60.7303 13.5579C60.8661 13.2782 61.2659 13.1103 61.6176 13.2782C61.9294 13.438 62.0892 13.7258 61.8974 14.1735L60.9541 15.8682C60.8102 16.14 60.4425 16.3159 60.0907 16.156Z"
            fill="#484D7B" />
        <path
            d="M69.2764 21.5758C68.9326 21.6957 68.5729 21.5198 68.429 21.1921L67.8694 19.8571H64.424L63.9204 21.1921C63.8005 21.5198 63.4168 21.6957 63.073 21.5758C62.7373 21.4559 62.6254 20.9922 62.7373 20.6885L65.1755 14.1733C65.4233 13.5018 65.7111 13.2061 66.2467 13.2061C66.7823 13.2061 67.086 13.4938 67.3099 14.1334L69.6201 20.6805C69.764 20.9842 69.6281 21.4399 69.2844 21.5678L69.2764 21.5758ZM67.4777 18.562L66.2467 14.9248L64.9037 18.562H67.4777Z"
            fill="#484D7B" />
        <path
            d="M76.1755 14.8688C75.9196 15.1166 75.5519 14.9807 75.2481 14.8208C74.8884 14.629 74.5686 14.4291 74.0171 14.4531C72.4342 14.5171 71.6668 15.8121 71.7308 17.3949C71.7947 19.0177 72.3383 20.1688 74.0171 20.4087C74.3528 20.4566 74.8085 20.3287 75.1922 20.0729C75.416 19.905 75.7278 19.7372 76.0555 19.8811C76.3833 20.0409 76.4712 20.5446 76.1994 20.8643C76.0396 21.0562 75.496 21.6158 74.0171 21.6158C71.5549 21.6158 70.2119 19.7212 70.2119 17.3949C70.2119 15.0687 71.6189 13.23 74.0171 13.2061C75.2002 13.23 75.7438 13.5178 76.1755 13.9255C76.4073 14.1254 76.5032 14.573 76.1755 14.8688Z"
            fill="#484D7B" />
        <path
            d="M83.0583 14.8688C82.8025 15.1166 82.4267 14.9807 82.131 14.8208C81.7712 14.629 81.4515 14.4291 80.8999 14.4531C79.3251 14.5171 78.5496 15.8121 78.6136 17.3949C78.6775 19.0177 79.2211 20.1688 80.8999 20.4087C81.2356 20.4566 81.6993 20.3287 82.075 20.0729C82.2988 19.905 82.6106 19.7372 82.9384 19.8811C83.2661 20.0409 83.354 20.5446 83.0822 20.8643C82.9224 21.0562 82.3788 21.6158 80.8999 21.6158C78.4377 21.6158 77.0947 19.7212 77.0947 17.3949C77.0947 15.0687 78.5017 13.23 80.8999 13.2061C82.091 13.23 82.6266 13.5178 83.0583 13.9255C83.2901 14.1254 83.386 14.573 83.0583 14.8688Z"
            fill="#484D7B" />
        <path
            d="M88.4539 20.8563C88.4539 21.2161 88.1181 21.5039 87.7504 21.5039H84.8805C84.4648 21.5039 84.1211 21.2241 84.1211 20.6885V14.0934C84.1211 13.5658 84.4648 13.286 84.8805 13.286H87.7104C88.0781 13.286 88.4139 13.5658 88.4139 13.9335C88.4139 14.3013 88.1181 14.637 87.7504 14.637H85.624V16.6995H87.5026C87.8703 16.6995 88.198 16.9872 88.198 17.363C88.198 17.7387 87.9182 18.0584 87.5505 18.0584H85.624V20.1529H87.7823C88.1501 20.1529 88.4459 20.4886 88.4459 20.8563H88.4539ZM84.9125 11.3195C85.0564 11.0397 85.3602 10.9278 85.7279 11.0477L87.1588 11.6313C87.4146 11.7671 87.6065 12.1429 87.4306 12.4466C87.2547 12.7264 86.879 12.8304 86.6152 12.7024L85.1843 12.1349C84.8246 11.999 84.7926 11.5673 84.9125 11.3195Z"
            fill="#484D7B" />
        <path
            d="M89.0451 19.9531C89.261 19.6173 89.6927 19.5694 90.0604 19.7932C90.6919 20.2089 91.2115 20.2409 91.4913 20.2568C92.6424 20.2488 92.9382 19.2176 92.7703 18.77C92.5705 18.2104 91.9709 18.0185 91.2915 17.7147C90.1163 17.2671 89.1091 16.5716 89.173 15.3325C89.237 14.0935 90.1483 13.2141 91.5553 13.2141C92.1148 13.2141 92.9302 13.2941 93.5857 13.6618C93.9215 13.8376 94.0814 14.2773 93.9215 14.6291C93.7536 14.9328 93.3059 15.1647 92.9622 14.9568C92.7464 14.7969 92.0429 14.3253 91.3714 14.5411C90.58 14.757 90.3961 15.7482 91.3714 16.1959L92.3547 16.6435C93.202 17.0592 94.0494 17.4509 94.2572 18.3703C94.4491 19.0178 94.3372 19.9371 93.6897 20.7125C92.9382 21.5838 91.875 21.6878 90.9877 21.6078C90.62 21.5759 89.7646 21.448 89.189 20.9124C88.9092 20.6246 88.8293 20.2648 89.0451 19.9611V19.9531Z"
            fill="#484D7B" />
        <path
            d="M58.3408 32.7675C57.9971 32.8874 57.6374 32.7115 57.4935 32.3838L56.9339 31.0488H53.4885L52.9848 32.3838C52.8649 32.7115 52.4812 32.8874 52.1375 32.7675C51.8017 32.6476 51.6898 32.1839 51.8017 31.8802L54.2399 25.365C54.4877 24.6935 54.7755 24.4058 55.3111 24.4058C55.8467 24.4058 56.1505 24.6935 56.3743 25.3331L58.6846 31.8802C58.8285 32.1839 58.6926 32.6396 58.3488 32.7675H58.3408ZM56.5502 29.7538L55.3191 26.1165L53.9761 29.7538H56.5502Z"
            fill="#484D7B" />
        <path
            d="M62.7774 32.8155C60.9548 32.8155 59.4199 31.5765 59.4199 29.538V25.2292C59.4199 24.7016 59.7637 24.4138 60.1794 24.4138C60.595 24.4138 60.9308 24.7016 60.9308 25.2292V29.7059C60.9308 30.4973 61.6822 31.4885 62.7774 31.4885C63.8726 31.4885 64.5681 30.5932 64.5681 29.6179V25.2292C64.5681 24.7016 64.9038 24.4138 65.3195 24.4138C65.7352 24.4138 66.0709 24.7016 66.0709 25.2292V29.506C66.063 31.5125 64.592 32.8235 62.7774 32.8235V32.8155Z"
            fill="#484D7B" />
        <path
            d="M73.0654 32.6875C72.7536 32.9033 72.3059 32.8074 72.0661 32.4957L69.9477 29.6498L68.0211 32.5036C67.8053 32.8314 67.3496 32.8954 67.0219 32.6795C66.6941 32.4557 66.6782 32 66.886 31.6803L69.1163 28.3468L67.1018 25.5009C66.878 25.1571 66.91 24.7255 67.2217 24.5176C67.5495 24.2938 68.0371 24.3977 68.261 24.6855L69.9717 27.1077L71.5625 24.7095C71.7783 24.3657 72.258 24.3098 72.5697 24.5336C72.8975 24.7494 72.9295 25.2131 72.7136 25.5329L70.8111 28.3308L73.2093 31.6803C73.4251 31.992 73.3771 32.4637 73.0494 32.6875H73.0654Z"
            fill="#484D7B" />
        <path
            d="M81.379 26.9797C81.379 28.2748 80.4278 29.234 79.1167 29.2181L81.2591 31.6402C81.475 31.8561 81.491 32.3437 81.2272 32.5915C80.9554 32.8234 80.5077 32.8074 80.2759 32.5596L77.422 29.3779V32C77.422 32.5516 77.0863 32.8154 76.6706 32.8154C76.2549 32.8154 75.9111 32.5436 75.9111 32V25.293C75.9111 24.7654 76.2549 24.4856 76.6706 24.4856H79.1487C80.5237 24.4856 81.387 25.6607 81.387 26.9797H81.379ZM77.414 28.2028H78.789C79.3965 28.2028 79.9561 27.6193 79.9321 26.9637C79.9081 26.3162 79.4525 25.8366 78.6931 25.8366H77.414V28.2108V28.2028Z"
            fill="#484D7B" />
        <path
            d="M86.5515 32.0481C86.5515 32.4078 86.2158 32.6956 85.848 32.6956H82.9782C82.5625 32.6956 82.2188 32.4158 82.2188 31.8802V25.2852C82.2188 24.7576 82.5625 24.4778 82.9782 24.4778H85.8081C86.1758 24.4778 86.5115 24.7576 86.5115 25.1253C86.5115 25.493 86.2238 25.8288 85.848 25.8288H83.7216V27.8912H85.6002C85.9679 27.8912 86.2957 28.179 86.2957 28.5547C86.2957 28.9305 86.0159 29.2502 85.6482 29.2502H83.7216V31.3446H85.88C86.2477 31.3446 86.5435 31.6804 86.5435 32.0481H86.5515Z"
            fill="#484D7B" />
        <path
            d="M87.1428 31.1447C87.3586 30.809 87.7903 30.761 88.166 30.9848C88.7896 31.4005 89.3172 31.4325 89.597 31.4485C90.7481 31.4405 91.0439 30.4093 90.876 29.9616C90.6761 29.402 90.0846 29.2102 89.3971 28.9064C88.222 28.4587 87.2147 27.7632 87.2787 26.5242C87.3426 25.2851 88.254 24.4058 89.6609 24.4058C90.2205 24.4058 91.0359 24.4857 91.6914 24.8534C92.0271 25.0293 92.187 25.469 92.0271 25.8207C91.8593 26.1245 91.4116 26.3563 91.0678 26.1485C90.852 25.9886 90.1485 25.5169 89.477 25.7328C88.6776 25.9486 88.5018 26.9399 89.477 27.3875L90.4603 27.8352C91.3077 28.2509 92.155 28.6426 92.3629 29.5619C92.5547 30.2094 92.4428 31.1287 91.7953 31.9042C91.0439 32.7755 89.9807 32.8794 89.0933 32.7995C88.7256 32.7675 87.8702 32.6396 87.2867 32.104C87.0069 31.8162 86.927 31.4565 87.1428 31.1527V31.1447Z"
            fill="#484D7B" />
        <path
            d="M93.2266 31.1447C93.4424 30.809 93.8741 30.761 94.2498 30.9848C94.8734 31.4005 95.401 31.4325 95.6808 31.4485C96.8319 31.4405 97.1277 30.4093 96.9598 29.9616C96.76 29.402 96.1604 29.2102 95.4809 28.9064C94.3058 28.4587 93.2985 27.7632 93.3625 26.5242C93.4264 25.2851 94.3378 24.4058 95.7447 24.4058C96.3043 24.4058 97.1197 24.4857 97.7752 24.8534C98.1109 25.0293 98.2708 25.469 98.1109 25.8207C97.9431 26.1245 97.4954 26.3563 97.1517 26.1485C96.9358 25.9886 96.2323 25.5169 95.5608 25.7328C94.7694 25.9486 94.5856 26.9399 95.5608 27.3875L96.5441 27.8352C97.3915 28.2509 98.2388 28.6426 98.4467 29.5619C98.6385 30.2094 98.5266 31.1287 97.8791 31.9042C97.1277 32.7755 96.0645 32.8794 95.1771 32.7995C94.8094 32.7675 93.954 32.6396 93.3785 32.104C93.0987 31.8162 93.0187 31.4565 93.2346 31.1527L93.2266 31.1447Z"
            fill="#484D7B" />
        <path
            d="M107.032 28.5946C107.032 30.9209 105.585 32.8155 103.21 32.8155C100.836 32.8155 99.4053 30.9209 99.4053 28.5946C99.4053 26.2684 100.82 24.4058 103.21 24.4058C105.601 24.4058 107.032 26.2684 107.032 28.5946ZM103.21 31.5444C104.633 31.5444 105.505 30.2094 105.505 28.5866C105.505 26.9638 104.609 25.6608 103.21 25.6608C101.811 25.6608 100.924 26.9479 100.924 28.5866C100.924 30.2254 101.74 31.5444 103.21 31.5444Z"
            fill="#484D7B" />
        <path
            d="M111.229 32.8155C109.406 32.8155 107.871 31.5765 107.871 29.538V25.2292C107.871 24.7016 108.215 24.4138 108.631 24.4138C109.046 24.4138 109.382 24.7016 109.382 25.2292V29.7059C109.382 30.4973 110.133 31.4885 111.229 31.4885C112.324 31.4885 113.019 30.5932 113.019 29.6179V25.2292C113.019 24.7016 113.355 24.4138 113.771 24.4138C114.186 24.4138 114.522 24.7016 114.522 25.2292V29.506C114.514 31.5125 113.043 32.8235 111.229 32.8235V32.8155Z"
            fill="#484D7B" />
        <path
            d="M121.054 26.9797C121.054 28.2748 120.103 29.234 118.792 29.2181L120.934 31.6402C121.15 31.8561 121.166 32.3437 120.902 32.5915C120.63 32.8234 120.183 32.8074 119.951 32.5596L117.097 29.3779V32C117.097 32.5516 116.761 32.8154 116.345 32.8154C115.93 32.8154 115.586 32.5436 115.586 32V25.293C115.586 24.7654 115.93 24.4856 116.345 24.4856H118.824C120.198 24.4856 121.062 25.6607 121.062 26.9797H121.054ZM117.089 28.2028H118.464C119.071 28.2028 119.631 27.6193 119.607 26.9637C119.583 26.3162 119.127 25.8366 118.368 25.8366H117.089V28.2108V28.2028Z"
            fill="#484D7B" />
        <path
            d="M127.713 26.0605C127.457 26.3083 127.081 26.1724 126.785 26.0125C126.426 25.8206 126.106 25.6208 125.554 25.6448C123.979 25.7087 123.204 27.0038 123.268 28.5866C123.332 30.2094 123.875 31.3605 125.554 31.6003C125.89 31.6483 126.354 31.5204 126.729 31.2646C126.953 31.0967 127.265 30.9288 127.593 31.0727C127.92 31.2326 128.008 31.7362 127.737 32.056C127.577 32.2478 127.033 32.8074 125.554 32.8074C123.092 32.8074 121.749 30.9128 121.749 28.5866C121.749 26.2603 123.164 24.4217 125.554 24.3977C126.745 24.4217 127.281 24.7095 127.713 25.1172C127.944 25.317 128.04 25.7647 127.713 26.0605Z"
            fill="#484D7B" />
        <path
            d="M133.108 32.0481C133.108 32.4078 132.772 32.6956 132.405 32.6956H129.535C129.119 32.6956 128.775 32.4158 128.775 31.8802V25.2852C128.775 24.7576 129.119 24.4778 129.535 24.4778H132.365C132.732 24.4778 133.068 24.7576 133.068 25.1253C133.068 25.493 132.772 25.8288 132.405 25.8288H130.278V27.8912H132.157C132.525 27.8912 132.852 28.179 132.852 28.5547C132.852 28.9305 132.573 29.2502 132.205 29.2502H130.278V31.3446H132.437C132.804 31.3446 133.1 31.6804 133.1 32.0481H133.108Z"
            fill="#484D7B" />
        <path
            d="M133.7 31.1447C133.916 30.809 134.348 30.761 134.716 30.9848C135.347 31.4005 135.867 31.4325 136.147 31.4485C137.298 31.4405 137.593 30.4093 137.426 29.9616C137.226 29.402 136.626 29.2102 135.947 28.9064C134.772 28.4587 133.764 27.7632 133.828 26.5242C133.892 25.2851 134.804 24.4058 136.211 24.4058C136.77 24.4058 137.585 24.4857 138.241 24.8534C138.577 25.0293 138.737 25.469 138.577 25.8207C138.409 26.1245 137.961 26.3563 137.617 26.1485C137.402 25.9886 136.698 25.5169 136.027 25.7328C135.235 25.9486 135.051 26.9399 136.027 27.3875L137.01 27.8352C137.857 28.2509 138.705 28.6426 138.913 29.5619C139.104 30.2094 138.992 31.1287 138.345 31.9042C137.593 32.7755 136.53 32.8794 135.643 32.7995C135.275 32.7675 134.42 32.6396 133.844 32.104C133.565 31.8162 133.485 31.4565 133.7 31.1527V31.1447Z"
            fill="#484D7B" />
        <path
            d="M53.5763 43.1837C53.5763 43.7353 53.2406 43.9991 52.8249 43.9991C52.4092 43.9991 52.0654 43.7273 52.0654 43.1837V36.4128C52.0654 35.8852 52.3772 35.5974 52.8249 35.5974C53.2246 35.5974 53.5843 36.213 53.92 36.6606L57.1896 41.2652V36.4048C57.1896 35.8452 57.5174 35.5974 57.925 35.5974C58.3327 35.5974 58.6845 35.8692 58.6845 36.4048V43.1917C58.6765 43.7033 58.3567 44.0071 57.9091 44.0071C57.5253 44.0071 57.0377 43.2157 56.8139 42.888L53.5683 38.2834V43.1837H53.5763Z"
            fill="#484D7B" />
        <path
            d="M63.129 44.0072C61.3063 44.0072 59.7715 42.7681 59.7715 40.7296V36.4209C59.7715 35.8933 60.1152 35.6055 60.5309 35.6055C60.9466 35.6055 61.2824 35.8933 61.2824 36.4209V40.8975C61.2824 41.6889 62.0338 42.6802 63.129 42.6802C64.2242 42.6802 64.9196 41.7848 64.9196 40.8096V36.4209C64.9196 35.8933 65.2554 35.6055 65.6711 35.6055C66.0868 35.6055 66.4225 35.8933 66.4225 36.4209V40.6977C66.4145 42.7042 64.9436 44.0152 63.129 44.0152V44.0072Z"
            fill="#484D7B" />
        <path
            d="M71.8344 44.0071C71.4907 44.0071 71.2508 43.7033 71.1389 43.3836L69.4682 37.9077L68.6608 43.3036C68.5808 43.8552 68.2131 44.0311 67.7974 43.9991C67.3977 43.9432 67.2139 43.6154 67.2858 43.0798L68.1571 36.7725C68.2611 36.0371 68.6048 35.5974 69.2124 35.5974C69.8599 35.5974 70.1876 36.093 70.3955 36.8205L71.8104 41.4091L73.2014 36.8205C73.4172 36.0691 73.729 35.5974 74.3845 35.5974C75 35.5974 75.3358 36.0211 75.4397 36.7645L76.311 43.0798C76.375 43.6154 76.1991 43.9432 75.7994 43.9991C75.3837 44.0311 75.016 43.8073 74.9361 43.3036L74.1287 37.9157L72.5299 43.3276C72.426 43.6874 72.1861 44.0071 71.8344 44.0071Z"
            fill="#484D7B" />
        <path
            d="M81.4109 43.2396C81.4109 43.5994 81.0751 43.8872 80.7074 43.8872H77.8376C77.4219 43.8872 77.0781 43.6074 77.0781 43.0718V36.4767C77.0781 35.9491 77.4219 35.6693 77.8376 35.6693H80.6674C81.0352 35.6693 81.3709 35.9491 81.3709 36.3168C81.3709 36.6846 81.0831 37.0203 80.7074 37.0203H78.581V39.0828H80.4596C80.8273 39.0828 81.1551 39.3705 81.1551 39.7463C81.1551 40.122 80.8753 40.4417 80.5076 40.4417H78.581V42.5362H80.7394C81.1071 42.5362 81.4029 42.8719 81.4029 43.2396H81.4109ZM77.6617 34.8299C77.4858 34.5262 77.6697 34.1504 77.9335 34.0146L79.3644 33.431C79.7321 33.3111 80.0359 33.423 80.1798 33.7028C80.2997 33.9506 80.2677 34.3823 79.908 34.5182L78.4771 35.0857C78.2053 35.2057 77.8376 35.1097 77.6617 34.8299Z"
            fill="#484D7B" />
        <path
            d="M87.6781 38.1714C87.6781 39.4664 86.7268 40.4257 85.4157 40.4097L87.5501 42.8319C87.766 43.0477 87.782 43.5354 87.5182 43.7832C87.2464 44.015 86.7987 43.999 86.5669 43.7512L83.713 40.5696V43.1916C83.713 43.7432 83.3773 44.007 82.9616 44.007C82.5459 44.007 82.2021 43.7352 82.2021 43.1916V36.4846C82.2021 35.957 82.5459 35.6772 82.9616 35.6772H85.4397C86.8147 35.6772 87.6781 36.8524 87.6781 38.1714ZM83.713 39.3945H85.088C85.6955 39.3945 86.2551 38.8109 86.2311 38.1554C86.2072 37.5079 85.7515 37.0282 84.9921 37.0282H83.713V39.4025V39.3945Z"
            fill="#484D7B" />
        <path
            d="M89.277 44.0072C88.8613 44.0072 88.5176 43.7354 88.5176 43.1918V36.4209C88.5176 35.8933 88.8613 35.6055 89.277 35.6055C89.6927 35.6055 90.0284 35.8933 90.0284 36.4209V43.1918C90.0284 43.7434 89.6927 44.0072 89.277 44.0072Z"
            fill="#484D7B" />
        <path
            d="M98.7741 43.1277C99.006 43.3196 99.006 43.7672 98.7821 43.9911C98.5663 44.2229 98.1426 44.1829 97.9188 43.9991L97.0155 43.2476C96.4079 43.7273 95.6245 43.9991 94.7212 43.9991C92.259 43.9991 90.916 42.1045 90.916 39.7782C90.916 37.452 92.323 35.5894 94.7212 35.5894C97.1194 35.5894 98.5423 37.452 98.5423 39.7782C98.5423 40.7295 98.2945 41.6168 97.8388 42.3283L98.7821 43.1277H98.7741ZM97.0075 39.7862C97.0075 38.1554 96.1121 36.8604 94.7212 36.8604C93.3302 36.8604 92.4349 38.1474 92.4349 39.7862C92.4349 41.425 93.2503 42.744 94.7212 42.744C95.2008 42.744 95.6165 42.6001 95.9522 42.3443L95.3607 41.8167C95.1289 41.6408 95.1289 41.1932 95.3527 40.9533C95.5685 40.7295 95.9922 40.7775 96.216 40.9453L96.6957 41.361C96.8955 40.9054 97.0075 40.3618 97.0075 39.7942V39.7862Z"
            fill="#484D7B" />
        <path
            d="M102.772 44.0072C100.949 44.0072 99.4141 42.7681 99.4141 40.7296V36.4209C99.4141 35.8933 99.7578 35.6055 100.173 35.6055C100.589 35.6055 100.925 35.8933 100.925 36.4209V40.8975C100.925 41.6889 101.676 42.6802 102.772 42.6802C103.867 42.6802 104.562 41.7848 104.562 40.8096V36.4209C104.562 35.8933 104.898 35.6055 105.314 35.6055C105.729 35.6055 106.065 35.8933 106.065 36.4209V40.6977C106.057 42.7042 104.586 44.0152 102.772 44.0152V44.0072Z"
            fill="#484D7B" />
        <path
            d="M111.453 43.2398C111.453 43.5995 111.117 43.8873 110.749 43.8873H107.88C107.464 43.8873 107.12 43.6075 107.12 43.0719V36.4768C107.12 35.9492 107.464 35.6694 107.88 35.6694H110.709C111.077 35.6694 111.413 35.9492 111.413 36.317C111.413 36.6847 111.125 37.0204 110.749 37.0204H108.623V39.0829H110.502C110.869 39.0829 111.197 39.3707 111.197 39.7464C111.197 40.1221 110.917 40.4419 110.55 40.4419H108.623V42.5363H110.781C111.149 42.5363 111.445 42.872 111.445 43.2398H111.453Z"
            fill="#484D7B" />
        <path
            d="M112.044 42.3364C112.26 42.0006 112.692 41.9527 113.059 42.1765C113.691 42.5922 114.211 42.6242 114.49 42.6401C115.641 42.6321 115.937 41.6009 115.769 41.1533C115.57 40.5937 114.97 40.4018 114.29 40.098C113.115 39.6504 112.108 38.9549 112.172 37.7158C112.236 36.4768 113.147 35.5974 114.554 35.5974C115.114 35.5974 115.929 35.6774 116.585 36.0451C116.921 36.2209 117.08 36.6606 116.921 37.0124C116.753 37.3161 116.305 37.548 115.961 37.3401C115.745 37.1802 115.042 36.7086 114.37 36.9244C113.579 37.1403 113.395 38.1315 114.37 38.5792L115.354 39.0268C116.201 39.4425 117.048 39.8342 117.256 40.7536C117.448 41.4011 117.336 42.3204 116.689 43.0958C115.937 43.9672 114.874 44.0711 113.987 43.9911C113.619 43.9592 112.764 43.8313 112.188 43.2957C111.908 43.0079 111.828 42.6481 112.044 42.3444V42.3364Z"
            fill="#484D7B" />
    </g>
    <defs>
        <clipPath id="clip0_12780_371153">
            <rect width="139" height="45.3181" fill="white" />
        </clipPath>
    </defs>
</svg>