<svg xmlns="http://www.w3.org/2000/svg" width="26.365" height="26.365" viewBox="0 0 26.365 26.365">
  <defs>
    <style>
      .cls-1-arbo,
      .cls-2-arbo {
        fill: var(--classroom-primary);
      }
    </style>
  </defs>
  <g id="arborescence" transform="translate(-70.729)">
    <path id="Tracé_6279" data-name="Tracé 6279" class="cls-1-arbo" d="M93.594,26.365H74.229a3.5,3.5,0,0,1-3.5-3.5V3.5a3.5,3.5,0,0,1,3.5-3.5H93.594a3.5,3.5,0,0,1,3.5,3.5V22.865a3.5,3.5,0,0,1-3.5,3.5M74.229,1a2.5,2.5,0,0,0-2.5,2.5V22.865a2.5,2.5,0,0,0,2.5,2.5H93.594a2.5,2.5,0,0,0,2.5-2.5V3.5a2.5,2.5,0,0,0-2.5-2.5Z"/>
    <rect id="Rectangle_3981" data-name="Rectangle 3981" class="cls-1-arbo" width="15" height="1" transform="translate(78.147 19.365)"/>
    <rect id="Rectangle_3982" data-name="Rectangle 3982" class="cls-1-arbo" width="15" height="1" transform="translate(78.147 6.176)"/>
    <rect id="Rectangle_3983" data-name="Rectangle 3983" class="cls-1-arbo" width="15" height="1" transform="translate(78.147 12.682)"/>
    <path id="Tracé_6280" data-name="Tracé 6280" class="cls-2-arbo" d="M74.842,5.176a1.5,1.5,0,1,1-1.5,1.5,1.5,1.5,0,0,1,1.5-1.5"/>
    <path id="Tracé_6281" data-name="Tracé 6281" class="cls-2-arbo" d="M74.842,11.683a1.5,1.5,0,1,1-1.5,1.5,1.5,1.5,0,0,1,1.5-1.5"/>
    <path id="Tracé_6282" data-name="Tracé 6282" class="cls-2-arbo" d="M74.842,18.176a1.5,1.5,0,1,1-1.5,1.5,1.5,1.5,0,0,1,1.5-1.5"/>
  </g>
</svg>
