<svg xmlns="http://www.w3.org/2000/svg" width="26.4" height="26.4">
  <path d="M22.9 0H3.5A3.5 3.5 0 0 0 0 3.5v19.4a3.5 3.5 0 0 0 3.5 3.5h19.4a3.5 3.5 0 0 0 3.5-3.5V3.5A3.5 3.5 0 0 0 22.9 0M19 6.3h-5.3V1H19Zm0 6.4h-5.3V7.3H19ZM6.3 19H1v-5.3h5.3Zm1-5.3h5.4V19H7.3Zm5.4-1H7.3V7.3h5.4Zm1 1H19V19h-5.3Zm-1-7.4H7.3V1h5.4ZM1 3.5A2.5 2.5 0 0 1 3.5 1h2.8v5.3H1Zm0 3.8h5.3v5.4H1Zm2.5 18A2.5 2.5 0 0 1 1 23v-3h5.3v5.4ZM7.3 20h5.4v5.4H7.3Zm6.4 0H19v5.4h-5.3Zm11.7 3a2.5 2.5 0 0 1-2.5 2.5H20V20h5.4Zm0-3.9H20v-5.3h5.4ZM20 7.3h5.4v5.4H20Zm0-1V1h3a2.5 2.5 0 0 1 2.5 2.5v2.8Z" style="fill:var(--classroom-primary)"/>
</svg>