<svg xmlns="http://www.w3.org/2000/svg" width="26.365" height="26.365" viewBox="0 0 26.365 26.365">
  <defs>
    <style>
      .cls-1-cadr {
        fill: #24a069;
      }
    </style>
  </defs>
  <path id="cadrillage" class="cls-1-cadr" d="M22.865,0H3.5A3.5,3.5,0,0,0,0,3.5V22.865a3.5,3.5,0,0,0,3.5,3.5H22.865a3.5,3.5,0,0,0,3.5-3.5V3.5a3.505,3.505,0,0,0-3.5-3.5M19.023,6.341H13.682V1h5.341Zm0,6.343H13.682V7.341h5.342ZM6.341,19.025H1V13.684H6.341Zm1-5.342h5.341v5.342H7.341Zm5.341-1H7.341V7.342h5.341Zm1,1h5.341v5.341H13.682Zm-1-7.342H7.341V1h5.341ZM1,3.5A2.5,2.5,0,0,1,3.5,1H6.341V6.341H1ZM1,7.341H6.341v5.343H1ZM3.5,25.365a2.5,2.5,0,0,1-2.5-2.5v-2.84H6.341v5.34Zm3.841-5.34h5.341v5.341H7.341Zm6.341,0h5.342v5.341H13.682Zm11.683,2.84a2.5,2.5,0,0,1-2.5,2.5H20.024v-5.34h5.341Zm0-3.84H20.023V13.683h5.342ZM20.024,7.342h5.341v5.341H20.024Zm0-1V1h2.842a2.5,2.5,0,0,1,2.5,2.5V6.342Z"/>
</svg>
