<svg xmlns="http://www.w3.org/2000/svg" viewBox="0 0 289.67 159"><defs><style>.cls-1{fill:#f1f1f1;}.cls-2{fill:#24a069;}.cls-3{fill:#fff;}.cls-4,.cls-5{fill:none;stroke:#24a069;stroke-miterlimit:10;}.cls-5{stroke-dasharray:2.94 4.91;}</style></defs><g id="Layer_2" data-name="Layer 2"><g id="Calque_1" data-name="Calque 1"><g id="close"><rect class="cls-1" width="289.67" height="159"/><g id="Nouveau_dossier" data-name="Nouveau dossier"><g id="Groupe_1973" data-name="Groupe 1973"><g id="Soustraction_5" data-name="Soustraction 5"><path class="cls-2" d="M203.81,141.3h-118a12.25,12.25,0,0,1-11.4-11.54V28.27A10.51,10.51,0,0,1,84.89,17.7h47.56a9.67,9.67,0,0,1,6.82,2.8l14.52,14.31h50a12.25,12.25,0,0,1,11.41,11.53v83.42A12.26,12.26,0,0,1,203.81,141.3ZM89.85,42a9.45,9.45,0,0,0-9.55,9.36V126.9a9.45,9.45,0,0,0,9.55,9.34h109.7a9.47,9.47,0,0,0,9.55-9.34V51.39A9.46,9.46,0,0,0,199.55,42Z"/></g></g></g><g id="Groupe_1973-2" data-name="Groupe 1973"><g id="Soustraction_5-2" data-name="Soustraction 5"><path class="cls-3" d="M84.89,140.8c-5.47,0-9.93-3.86-9.94-8.59V58.82c0-4.73,4.46-8.58,9.94-8.59H204.78c5.48,0,9.94,3.86,9.94,8.59v73.4c0,4.72-4.46,8.57-9.94,8.58H84.89Z"/><path class="cls-2" d="M204.78,50.73h0c5.21,0,9.44,3.64,9.44,8.09v73.39c0,4.45-4.24,8.08-9.44,8.09H84.89c-5.2,0-9.43-3.64-9.44-8.08V58.82c0-4.45,4.24-8.08,9.44-8.09H204.78m0-1H84.89c-5.77,0-10.44,4.08-10.44,9.09v73.4c0,5,4.68,9.07,10.44,9.08H204.78c5.76,0,10.43-4.07,10.44-9.08V58.82c0-5-4.67-9.08-10.44-9.09Z"/></g></g><line class="cls-4" x1="85.55" y1="118.59" x2="203.36" y2="118.59"/><line class="cls-4" x1="89.27" y1="126.04" x2="90.77" y2="126.04"/><line class="cls-5" x1="95.67" y1="126.04" x2="195.3" y2="126.04"/><line class="cls-4" x1="197.76" y1="126.04" x2="199.26" y2="126.04"/></g></g></g></svg>