<svg xmlns="http://www.w3.org/2000/svg" viewBox="0 0 289.67 159"><defs><style>.cls-1{fill:#f1f1f1;}.cls-2{fill:#24a069;}.cls-3{fill:#fff;}.cls-4,.cls-5{fill:none;stroke:#24a069;stroke-miterlimit:10;}.cls-5{stroke-dasharray:2.94 4.91;}</style></defs><g id="Layer_2" data-name="Layer 2"><g id="Calque_1" data-name="Calque 1"><g id="open"><rect class="cls-1" width="289.67" height="159"/><g id="Nouveau_dossier" data-name="Nouveau dossier"><g id="Groupe_1973" data-name="Groupe 1973"><g id="Soustraction_5" data-name="Soustraction 5"><path class="cls-2" d="M203.81,141.3h-118a12.25,12.25,0,0,1-11.4-11.54V28.27A10.51,10.51,0,0,1,84.89,17.7h47.56a9.67,9.67,0,0,1,6.82,2.8l14.52,14.31h50a12.25,12.25,0,0,1,11.41,11.53v83.42A12.26,12.26,0,0,1,203.81,141.3ZM89.85,42a9.45,9.45,0,0,0-9.55,9.36V126.9a9.45,9.45,0,0,0,9.55,9.34h109.7a9.47,9.47,0,0,0,9.55-9.34V51.39A9.46,9.46,0,0,0,199.55,42Z"/></g></g></g><g id="Groupe_1973-2" data-name="Groupe 1973"><g id="Soustraction_5-2" data-name="Soustraction 5"><path class="cls-3" d="M84.89,140.8c-4.55,0-7.72-2.79-10-8.76s-5.5-14.67-8.76-23.39c-3.61-9.68-7.3-19.57-9.95-26.57a9.45,9.45,0,0,1,.8-8.41c1.56-2.25,4.28-3.44,7.88-3.44H180.33c9.68,0,12.3,2.75,15.27,11,4.6,12.77,18.34,49,19.12,51.07-.06,4.69-4.5,8.49-9.94,8.5H84.89Z"/><path class="cls-2" d="M180.34,70.73c10,0,12.06,3.09,14.79,10.67,4.55,12.61,18,48.15,19.09,51-.12,4.37-4.31,7.9-9.44,7.91H84.89c-4.32,0-7.34-2.69-9.5-8.44-2.32-6.14-5.46-14.56-8.79-23.47C63,98.8,59.32,88.89,56.68,81.91a9,9,0,0,1,.75-8c1.45-2.1,4-3.22,7.46-3.22H180.34m0-1H64.89c-9.5,0-10.92,7.84-9.14,12.53,5,13.3,13.83,37.05,18.7,50,1.77,4.68,4.68,9.07,10.44,9.08H204.78c5.76,0,10.43-4.07,10.44-9.08,0,0-14.38-37.94-19.15-51.16-2.94-8.17-5.51-11.33-15.73-11.33Z"/></g></g><line class="cls-4" x1="80.55" y1="123.59" x2="198.36" y2="123.59"/><line class="cls-4" x1="86.27" y1="131.04" x2="87.77" y2="131.04"/><line class="cls-5" x1="92.67" y1="131.04" x2="192.3" y2="131.04"/><line class="cls-4" x1="194.76" y1="131.04" x2="196.26" y2="131.04"/></g></g></g></svg>