<svg xmlns="http://www.w3.org/2000/svg" viewBox="0 0 160.13 123.59"><defs><style>.cls-1{fill:var(--classroom-primary);}.cls-2{fill:#fff;}.cls-3,.cls-4{fill:none;stroke:var(--classroom-primary);stroke-miterlimit:10;}.cls-4{stroke-dasharray:2.94 4.91;}</style></defs><g id="Layer_2" data-name="Layer 2"><g id="Calque_1" data-name="Calque 1"><g id="open"><g id="Nouveau_dossier" data-name="Nouveau dossier"><g id="Groupe_1973" data-name="Groupe 1973"><g id="Soustraction_5" data-name="Soustraction 5"><path class="cls-1" d="M149.23,123.59h-118a12.25,12.25,0,0,1-11.4-11.53V10.57A10.51,10.51,0,0,1,30.3,0H77.86a9.67,9.67,0,0,1,6.82,2.8L99.2,17.11h50a12.24,12.24,0,0,1,11.4,11.53v83.42A12.24,12.24,0,0,1,149.23,123.59Zm-114-99.26a9.45,9.45,0,0,0-9.55,9.35V109.2a9.47,9.47,0,0,0,9.55,9.34H145a9.47,9.47,0,0,0,9.55-9.34V33.68A9.46,9.46,0,0,0,145,24.33Z" transform="translate(-0.5)"/></g></g></g><g id="Groupe_1973-2" data-name="Groupe 1973"><g id="Soustraction_5-2" data-name="Soustraction 5"><path class="cls-2" d="M30.3,123.09c-4.55,0-7.72-2.78-10-8.75C18,108.22,14.83,99.67,11.58,91,8,81.27,4.27,71.38,1.63,64.38A9.42,9.42,0,0,1,2.43,56C4,53.72,6.7,52.53,10.3,52.53H125.75c9.67,0,12.29,2.75,15.26,11,4.61,12.76,18.35,49,19.12,51.07-.06,4.69-4.5,8.49-9.93,8.49H30.3Z" transform="translate(-0.5)"/><path class="cls-1" d="M125.75,53c10,0,12.06,3.09,14.8,10.67,4.54,12.61,18,48.15,19.08,51-.12,4.37-4.31,7.9-9.43,7.9H30.3c-4.31,0-7.33-2.68-9.5-8.43C18.48,108,15.34,99.6,12,90.68,8.43,81.1,4.73,71.19,2.09,64.21a9,9,0,0,1,.75-8C4.29,54.14,6.88,53,10.3,53H125.75m0-1H10.3C.8,52-.62,59.87,1.16,64.56c5,13.3,13.83,37.05,18.7,50,1.77,4.69,4.68,9.08,10.44,9.08H150.2c5.76,0,10.43-4.06,10.43-9.08,0,0-14.38-37.93-19.14-51.15C138.54,55.19,136,52,125.75,52Z" transform="translate(-0.5)"/></g></g><line class="cls-3" x1="25.46" y1="105.89" x2="143.27" y2="105.89"/><line class="cls-3" x1="31.18" y1="113.33" x2="32.68" y2="113.33"/><line class="cls-4" x1="37.59" y1="113.33" x2="137.21" y2="113.33"/><line class="cls-3" x1="139.67" y1="113.33" x2="141.17" y2="113.33"/></g></g></g></svg>