<?xml version="1.0" encoding="UTF-8"?>
<svg style="height:30px" xmlns="http://www.w3.org/2000/svg" viewBox="0 0 202.01 191.97">
    <g id="Calque_1-2">
        <g>
            <path class="cls-1-folder" d="M83.09,144.63H22.68V59.49h60.42c6.26,0,11.34-5.08,11.34-11.34s-5.08-11.34-11.34-11.34H22.68V11.34C22.68,5.08,17.6,0,11.34,0S0,5.08,0,11.34V155.97c0,6.26,5.08,11.34,11.34,11.34H83.09c6.26,0,11.34-5.08,11.34-11.34s-5.08-11.34-11.34-11.34Z"/>
            <path class="cls-1-folder" id="icon" d="M113.59,.32h32.27c1.73,0,3.4,.68,4.63,1.9l9.85,9.71h33.94c4.18,.29,7.5,3.64,7.74,7.82v56.59c-.24,4.18-3.56,7.54-7.74,7.82H114.25c-4.18-.29-7.5-3.64-7.74-7.82V7.49c0-3.93,3.15-7.13,7.08-7.17Z"/>
            <path class="cls-1-folder" id="icon-2" d="M113.59,108.12h32.27c1.73,0,3.4,.68,4.63,1.9l9.85,9.71h33.94c4.18,.29,7.5,3.64,7.74,7.82v56.59c-.24,4.18-3.56,7.54-7.74,7.82H114.25c-4.18-.29-7.5-3.64-7.74-7.82V115.3c0-3.93,3.15-7.13,7.08-7.17Z"/>
        </g>
    </g>
</svg>