<svg xmlns="http://www.w3.org/2000/svg" width="35.172" height="30.998" viewBox="0 0 35.172 30.998">
  <g id="Nouveau_dossier" data-name="Nouveau dossier" transform="translate(-751.216 -92.607)">
    <g id="Groupe_1973" data-name="Groupe 1973" transform="translate(-10.978 -324)">
      <path id="Soustraction_5" data-name="Soustraction 5" d="M31.4,30H2.767A2.974,2.974,0,0,1,0,27.2V2.566A2.552,2.552,0,0,1,2.533,0H14.077A2.349,2.349,0,0,1,15.734.68l3.523,3.472H31.4a2.974,2.974,0,0,1,2.769,2.8V27.2A2.974,2.974,0,0,1,31.4,30ZM3.738,5.4A2.321,2.321,0,0,0,1.419,7.721V26.455a2.321,2.321,0,0,0,2.318,2.318H30.365a2.321,2.321,0,0,0,2.318-2.318V7.721A2.321,2.321,0,0,0,30.365,5.4H3.738Z" transform="translate(762.696 417.105)" fill="#24a069" stroke="rgba(0,0,0,0)" stroke-width="1"/>
    </g>
    <path id="Union_4" data-name="Union 4" d="M-3918.2,19620.479h0v0h0v0Z" transform="translate(4687.301 -19510.141)" fill="none" stroke="#24a069" stroke-linecap="round" stroke-linejoin="round" stroke-width="3"/>
  </g>
</svg>
