<svg xmlns="http://www.w3.org/2000/svg" viewBox="0 0 140.8 123.6">
  <defs>
    <style>
      .folder-close-1{fill:var(--classroom-primary)}.folder-close-3{fill:none;stroke:var(--classroom-primary);stroke-miterlimit:10}
    </style>
  </defs>
  <g id="Layer_2" data-name="Layer 2">
    <g id="Calque_1" data-name="Calque 1">
      <g id="close">
        <g id="Nouveau_dossier" data-name="Nouveau dossier">
          <g id="Groupe_1973" data-name="Groupe 1973">
            <path class="folder-close-1" d="M129.9 123.6h-118A12.3 12.3 0 0 1 .5 112V10.6A10.5 10.5 0 0 1 10.9 0h47.6a9.7 9.7 0 0 1 6.8 2.8l14.5 14.3h50a12.3 12.3 0 0 1 11.4 11.5v83.5a12.3 12.3 0 0 1-11.3 11.5Zm-114-99.3a9.4 9.4 0 0 0-9.5 9.4v75.5a9.4 9.4 0 0 0 9.5 9.3h109.7a9.5 9.5 0 0 0 9.6-9.3V33.7a9.5 9.5 0 0 0-9.6-9.4Z" transform="translate(-.5)" id="Soustraction_5" data-name="Soustraction 5"/>
          </g>
        </g>
        <g id="Groupe_1973-2" data-name="Groupe 1973">
          <g id="Soustraction_5-2" data-name="Soustraction 5">
            <path d="M11 123.1c-5.5 0-10-3.9-10-8.6V41.1c0-4.7 4.5-8.6 10-8.6h119.8c5.5 0 10 3.9 10 8.6v73.4c0 4.7-4.5 8.6-10 8.6H11Z" transform="translate(-.5)" style="fill:#fff"/>
            <path class="folder-close-1" d="M130.8 33c5.2 0 9.5 3.6 9.5 8v73.5c0 4.4-4.3 8-9.5 8H11c-5.2 0-9.4-3.6-9.4-8V41c0-4.4 4.2-8.1 9.4-8.1h120m0-1H11C5.2 32 .5 36.1.5 41.1v73.4c0 5 4.7 9 10.4 9h120c5.7 0 10.4-4 10.4-9V41.1c0-5-4.7-9-10.5-9Z" transform="translate(-.5)"/>
          </g>
        </g>
        <path class="folder-close-3" d="M11.1 100.9h117.8m-114.1 7.4h1.5"/>
        <path style="stroke-dasharray:2.94 4.91;fill:none;stroke:var(--classroom-primary);stroke-miterlimit:10" d="M21.2 108.3h99.6"/>
        <path class="folder-close-3" d="M123.3 108.3h1.5"/>
      </g>
    </g>
  </g>
</svg>