<svg xmlns="http://www.w3.org/2000/svg" width="26.365" height="26.365" viewBox="0 0 26.365 26.365">
  <defs>
    <style>
      .cls-1-ligne {
        fill: gray;
      }
    </style>
  </defs>
  <path id="ligne" class="cls-1-ligne" d="M58.23,0H38.865a3.5,3.5,0,0,0-3.5,3.5V22.865a3.5,3.5,0,0,0,3.5,3.5H58.23a3.5,3.5,0,0,0,3.5-3.5V3.5A3.5,3.5,0,0,0,58.23,0M38.865,1H58.23a2.5,2.5,0,0,1,2.5,2.5V6.176H36.365V3.5a2.5,2.5,0,0,1,2.5-2.5m-2.5,6.176H60.73v5.508H36.365ZM60.73,19.365H36.365V13.683H60.73Zm-2.5,6H38.865a2.5,2.5,0,0,1-2.5-2.5v-2.5H60.73v2.5a2.5,2.5,0,0,1-2.5,2.5" transform="translate(-35.365)"/>
</svg>
